<?xml version="1.0" encoding="UTF-8"?>
<svg id="Layer_2" data-name="Layer 2" xmlns="http://www.w3.org/2000/svg" viewBox="0 0 411.29 249.25">
  <defs>
    <style>
      .cls-1 {
        letter-spacing: .02em;
      }

      .cls-2 {
        letter-spacing: -.07em;
      }

      .cls-3, .cls-4, .cls-5, .cls-6, .cls-7, .cls-8, .cls-9, .cls-10, .cls-11, .cls-12, .cls-13, .cls-14, .cls-15, .cls-16, .cls-17, .cls-18, .cls-19, .cls-20, .cls-21, .cls-22, .cls-23, .cls-24, .cls-25, .cls-26, .cls-27, .cls-28, .cls-29, .cls-30, .cls-31, .cls-32, .cls-33, .cls-34, .cls-35, .cls-36, .cls-37, .cls-38, .cls-39, .cls-40, .cls-41, .cls-42, .cls-43, .cls-44 {
        fill: none;
      }

      .cls-3, .cls-4, .cls-5, .cls-6, .cls-7, .cls-9, .cls-10, .cls-12, .cls-13, .cls-15, .cls-18, .cls-19, .cls-20, .cls-21, .cls-22, .cls-23, .cls-24, .cls-25, .cls-26, .cls-28, .cls-29, .cls-34, .cls-35, .cls-37, .cls-38, .cls-39, .cls-40, .cls-42, .cls-44 {
        stroke-linejoin: round;
      }

      .cls-3, .cls-6, .cls-7, .cls-8, .cls-12, .cls-13, .cls-14, .cls-23, .cls-27, .cls-29, .cls-39, .cls-44 {
        stroke-width: 3.21px;
      }

      .cls-3, .cls-37 {
        stroke: #f386a1;
      }

      .cls-4, .cls-5, .cls-9, .cls-11, .cls-15, .cls-16, .cls-19, .cls-21, .cls-24, .cls-26, .cls-32, .cls-35, .cls-36, .cls-37, .cls-40, .cls-42 {
        stroke-width: 2.07px;
      }

      .cls-4, .cls-44 {
        stroke: #ee3124;
      }

      .cls-45 {
        letter-spacing: -.01em;
      }

      .cls-5, .cls-28 {
        stroke: #86cebc;
      }

      .cls-6, .cls-19 {
        stroke: #ffd200;
      }

      .cls-46 {
        letter-spacing: -.03em;
      }

      .cls-7, .cls-9 {
        stroke: #97005e;
      }

      .cls-8, .cls-14, .cls-17, .cls-27, .cls-30, .cls-31, .cls-33, .cls-41 {
        stroke-miterlimit: 3.86;
      }

      .cls-8, .cls-16, .cls-40 {
        stroke: #949ca1;
      }

      .cls-47 {
        letter-spacing: 0em;
      }

      .cls-48 {
        letter-spacing: -.02em;
      }

      .cls-49 {
        fill: #97005e;
      }

      .cls-49, .cls-50, .cls-51, .cls-52, .cls-53, .cls-54, .cls-55, .cls-56, .cls-57, .cls-58, .cls-59 {
        stroke-width: 0px;
      }

      .cls-60 {
        font-size: 4.18px;
      }

      .cls-60, .cls-61, .cls-62, .cls-52, .cls-63, .cls-64, .cls-65, .cls-66 {
        fill: #1c3f94;
      }

      .cls-60, .cls-61, .cls-62, .cls-63, .cls-64, .cls-65, .cls-66, .cls-67 {
        font-family: NJFont-BookBold, NJFont;
      }

      .cls-10 {
        stroke-dasharray: 0 0 0 0;
      }

      .cls-10, .cls-17, .cls-18, .cls-20, .cls-22, .cls-25, .cls-30, .cls-31, .cls-33, .cls-68 {
        stroke: #fff;
      }

      .cls-10, .cls-17, .cls-18, .cls-22, .cls-25 {
        stroke-width: .78px;
      }

      .cls-11, .cls-14, .cls-42 {
        stroke: #b06010;
      }

      .cls-11, .cls-16, .cls-32, .cls-36, .cls-68, .cls-43 {
        stroke-miterlimit: 10;
      }

      .cls-12, .cls-35 {
        stroke: #634ea0;
      }

      .cls-61 {
        font-size: 7.26px;
      }

      .cls-13, .cls-21, .cls-34, .cls-36 {
        stroke: #231f20;
      }

      .cls-69 {
        letter-spacing: 0em;
      }

      .cls-62 {
        font-size: 6.69px;
      }

      .cls-15, .cls-29 {
        stroke: #1c3f94;
      }

      .cls-17 {
        stroke-dasharray: 0 0 3.41 1.71;
      }

      .cls-70 {
        letter-spacing: 0em;
      }

      .cls-50 {
        fill: #009ddc;
      }

      .cls-20 {
        stroke-width: .73px;
      }

      .cls-71 {
        letter-spacing: -.02em;
      }

      .cls-22 {
        stroke-dasharray: 0 0 2.91 1.46;
      }

      .cls-51 {
        fill: #f386a1;
      }

      .cls-23, .cls-38, .cls-41 {
        stroke: #d385a9;
      }

      .cls-53 {
        fill: #00853f;
      }

      .cls-24, .cls-27, .cls-32 {
        stroke: #009ddc;
      }

      .cls-25 {
        stroke-dasharray: 0 0 0 0 2.91 1.46 2.91 1.46;
      }

      .cls-54, .cls-68 {
        fill: #fff;
      }

      .cls-26, .cls-39 {
        stroke: #00853f;
      }

      .cls-72 {
        letter-spacing: -.02em;
      }

      .cls-55 {
        fill: #ffd200;
      }

      .cls-73 {
        letter-spacing: -.02em;
      }

      .cls-74 {
        letter-spacing: 0em;
      }

      .cls-75 {
        letter-spacing: -.02em;
      }

      .cls-76 {
        letter-spacing: 0em;
      }

      .cls-28 {
        stroke-width: 3.21px;
      }

      .cls-77 {
        letter-spacing: 0em;
      }

      .cls-56 {
        fill: #b06010;
      }

      .cls-63, .cls-67 {
        font-size: 4.18px;
      }

      .cls-64 {
        font-size: 4.18px;
      }

      .cls-78 {
        letter-spacing: 0em;
      }

      .cls-57 {
        fill: #231f20;
      }

      .cls-79 {
        letter-spacing: -.05em;
      }

      .cls-80 {
        letter-spacing: 0em;
      }

      .cls-30, .cls-33 {
        stroke-width: 2.2px;
      }

      .cls-31 {
        stroke-width: 1.17px;
      }

      .cls-58 {
        fill: #c7eafb;
      }

      .cls-33 {
        stroke-dasharray: 0 0 3.96 7.91;
      }

      .cls-34 {
        stroke-width: 2.03px;
      }

      .cls-65 {
        font-size: 2.91px;
      }

      .cls-38, .cls-41 {
        stroke-width: 2.21px;
      }

      .cls-81 {
        letter-spacing: -.02em;
      }

      .cls-82 {
        letter-spacing: 0em;
      }

      .cls-83 {
        letter-spacing: -.04em;
      }

      .cls-66 {
        font-size: 6.69px;
      }

      .cls-84 {
        letter-spacing: -.01em;
      }

      .cls-85 {
        letter-spacing: -.01em;
      }

      .cls-67 {
        fill: #00b3f0;
      }

      .cls-59 {
        fill: #ee3124;
      }

      .cls-43 {
        stroke: #44c8f5;
        stroke-width: .28px;
      }

      .cls-86 {
        letter-spacing: 0em;
      }

      .cls-87 {
        letter-spacing: -.02em;
      }
    </style>
  </defs>
  <g id="Layer_1-2" data-name="Layer 1">
    <path class="cls-40" d="m89.34,39.63v52.2c0,1.95.75,3.89,2.05,4.95l15.99,16,1.45,1.46,43.6,43.59c1.06.93,2.05,3.04,2.05,4.99v12.96c0,3.83,3.11,6.94,6.94,6.94h10.8s2.07,0,2.07,0h26.87c1.39.08,3.58-.67,4.95-2.05l31.68-31.68,1.37-1.35,5.17-5.17c1.13-1.13,3.36-2.05,4.95-2.05l5.12.02h2.02"/>
    <g>
      <line class="cls-27" x1="356.15" y1="184.57" x2="402.12" y2="184.57"/>
      <line class="cls-23" x1="354.62" y1="228.88" x2="401.06" y2="228.88"/>
      <line class="cls-30" x1="354.07" y1="228.88" x2="356.07" y2="228.88"/>
      <line class="cls-33" x1="363.99" y1="228.88" x2="395.65" y2="228.88"/>
      <line class="cls-30" x1="399.6" y1="228.88" x2="401.6" y2="228.88"/>
      <line class="cls-29" x1="356.24" y1="169.79" x2="402.2" y2="169.79"/>
      <line class="cls-28" x1="356.06" y1="199.34" x2="402.03" y2="199.34"/>
      <text class="cls-66" transform="translate(355.24 179.13)"><tspan class="cls-47" x="0" y="0">V</tspan><tspan x="4.06" y="0">i</tspan><tspan class="cls-80" x="5.56" y="0">c</tspan><tspan class="cls-48" x="8.68" y="0">t</tspan><tspan class="cls-69" x="10.97" y="0">oria</tspan></text>
      <line class="cls-12" x1="354.53" y1="214.11" x2="400.97" y2="214.11"/>
      <line class="cls-31" x1="353.98" y1="214.11" x2="401.51" y2="214.11"/>
      <text class="cls-66" transform="translate(355.15 208.68)"><tspan x="0" y="0">Eli</tspan><tspan class="cls-71" x="6.77" y="0">z</tspan><tspan x="9.56" y="0">a</tspan><tspan class="cls-76" x="12.58" y="0">b</tspan><tspan class="cls-77" x="16.12" y="0">e</tspan><tspan x="19.37" y="0">th line</tspan></text>
      <text class="cls-66" transform="translate(355.06 164.36)"><tspan x="0" y="0">Pi</tspan><tspan class="cls-86" x="4.98" y="0">c</tspan><tspan x="7.99" y="0">cadi</tspan><tspan class="cls-73" x="19.09" y="0">l</tspan><tspan class="cls-79" x="20.61" y="0">l</tspan><tspan x="21.94" y="0">y</tspan></text>
      <text class="cls-66" transform="translate(354.97 193.9)"><tspan class="cls-2" x="0" y="0">W</tspan><tspan class="cls-78" x="5.34" y="0">a</tspan><tspan class="cls-48" x="8.29" y="0">t</tspan><tspan class="cls-69" x="10.59" y="0">er</tspan><tspan class="cls-71" x="16.03" y="0">l</tspan><tspan class="cls-76" x="17.55" y="0">o</tspan><tspan class="cls-69" x="21.21" y="0">o &amp; Ci</tspan><tspan class="cls-80" x="37.42" y="0">t</tspan><tspan x="39.89" y="0">y</tspan></text>
      <line class="cls-7" x1="355.97" y1="140.25" x2="401.94" y2="140.25"/>
      <line class="cls-6" x1="355.33" y1="81.16" x2="401.38" y2="81.16"/>
      <line class="cls-44" x1="355.78" y1="66.39" x2="401.8" y2="66.39"/>
      <line class="cls-14" x1="355.42" y1="51.62" x2="401.47" y2="51.62"/>
      <line class="cls-8" x1="355.51" y1="125.48" x2="401.54" y2="125.48"/>
      <line class="cls-3" x1="355.69" y1="110.71" x2="401.71" y2="110.71"/>
      <line class="cls-13" x1="355.88" y1="155.02" x2="401.85" y2="155.02"/>
      <line class="cls-39" x1="355.6" y1="95.93" x2="401.62" y2="95.93"/>
      <text class="cls-61" transform="translate(354.6 34.03)"><tspan class="cls-46" x="0" y="0">K</tspan><tspan class="cls-84" x="4.1" y="0">e</tspan><tspan x="7.57" y="0">y </tspan><tspan class="cls-81" x="12.65" y="0">t</tspan><tspan x="15.14" y="0">o lines</tspan></text>
      <text class="cls-66" transform="translate(354.88 134.82)"><tspan x="0" y="0">M</tspan><tspan class="cls-77" x="5.22" y="0">e</tspan><tspan x="8.47" y="0">t</tspan><tspan class="cls-87" x="10.89" y="0">r</tspan><tspan class="cls-69" x="12.93" y="0">o</tspan><tspan class="cls-76" x="16.56" y="0">p</tspan><tspan x="20.1" y="0">oli</tspan><tspan class="cls-86" x="26.9" y="0">t</tspan><tspan x="29.27" y="0">an</tspan></text>
      <text class="cls-66" transform="translate(354.79 75.73)"><tspan x="0" y="0">Ci</tspan><tspan class="cls-87" x="5.6" y="0">r</tspan><tspan x="7.64" y="0">c</tspan><tspan class="cls-71" x="10.7" y="0">l</tspan><tspan x="12.22" y="0">e</tspan></text>
      <text class="cls-66" transform="translate(354.7 60.96)"><tspan class="cls-71" x="0" y="0">C</tspan><tspan x="3.95" y="0">e</tspan><tspan class="cls-85" x="7.23" y="0">n</tspan><tspan x="10.57" y="0">t</tspan><tspan class="cls-75" x="12.98" y="0">r</tspan><tspan x="14.99" y="0">al</tspan></text>
      <text class="cls-66" transform="translate(354.61 46.18)"><tspan x="0" y="0">Ba</tspan><tspan class="cls-83" x="6.73" y="0">k</tspan><tspan class="cls-69" x="9.52" y="0">er</tspan><tspan class="cls-72" x="14.97" y="0">l</tspan><tspan class="cls-70" x="16.49" y="0">o</tspan><tspan class="cls-69" x="20.15" y="0">o</tspan></text>
      <text class="cls-66" transform="translate(354.52 120.04)"><tspan x="0" y="0">Jubi</tspan><tspan class="cls-71" x="11.4" y="0">l</tspan><tspan x="12.93" y="0">ee</tspan></text>
      <text class="cls-66" transform="translate(354.43 105.27)"><tspan x="0" y="0">Hammersmith &amp; Ci</tspan><tspan class="cls-80" x="51.32" y="0">t</tspan><tspan class="cls-74" x="53.79" y="0">y</tspan></text>
      <text class="cls-66" transform="translate(354.34 149.59)"><tspan x="0" y="0">No</tspan><tspan class="cls-1" x="8.41" y="0">r</tspan><tspan x="10.7" y="0">thern</tspan></text>
      <text class="cls-66" transform="translate(354.25 90.5)"><tspan x="0" y="0">Di</tspan><tspan class="cls-45" x="5.68" y="0">s</tspan><tspan x="8.43" y="0">tri</tspan><tspan class="cls-82" x="14.51" y="0">c</tspan><tspan x="17.64" y="0">t</tspan></text>
      <text class="cls-62" transform="translate(354.16 223.45)"><tspan x="0" y="0">Thameslink</tspan></text>
      <g>
        <path class="cls-58" d="m301.86,122.85h-1.52"/>
        <path class="cls-58" d="m300.11,128.72h1.5"/>
        <path class="cls-58" d="m300.34,122.72h-13.26s0-.01,0-.01h-47.94c-2.64-.03-5.14,1.06-6.93,2.91l-.9.91-11.12,11.12-.04.04-23.2,23.21c-.68.68-1.6,1.08-2.58,1.11h-21.16s0-.02,0-.02h-50.87c-5.24,0-9.48,4.25-9.48,9.49v42.59c0,1.98-1.61,3.59-3.59,3.59h-8.22s-.75,0-.75,0h-48.71s0,4.73,0,4.73h31.13s18.2-.08,18.2-.08h8.37c5.24,0,9.48-4.25,9.48-9.49v-23.59h0v-17.56c0-2.09,1.7-3.79,3.79-3.79h45.99s25.8,0,25.8,0c2.64.03,5.15-1.06,6.93-2.91l26.49-26.5.07-.06,8.71-8.71c.68-.67,1.6-1.08,2.57-1.11h31.71s0,0,0,0h29.29"/>
        <path class="cls-43" d="m299.56,122.85h-12.49s0-.01,0-.01h-47.94c-2.64-.02-5.14,1.06-6.93,2.92l-.9.91-11.12,11.12-.04.04-23.2,23.21c-.68.68-1.6,1.08-2.58,1.11h-21.16s0-.01,0-.01h-50.87c-5.24,0-9.48,4.25-9.48,9.49v42.59c0,1.98-1.61,3.59-3.59,3.59h-8.21s-.75,0-.75,0h-48.84s-.01,4.86,0,4.86"/>
        <path class="cls-43" d="m51.38,222.51h31.33s18.2-.08,18.2-.08h8.37c5.24,0,9.48-4.25,9.48-9.49v-23.59h0v-17.56c0-2.09,1.7-3.79,3.79-3.79h45.99s25.8,0,25.8,0c2.64.03,5.15-1.06,6.93-2.91l26.49-26.5.07-.06,8.71-8.71c.68-.67,1.6-1.08,2.57-1.11h31.71s0,0,0,0h29.28s0-5.88,0-5.88h-8.27"/>
        <path class="cls-52" d="m106.41,219.11c1.84,0,3.32,1.49,3.32,3.32s-1.48,3.32-3.32,3.32-3.32-1.48-3.32-3.32,1.49-3.32,3.32-3.32"/>
        <path class="cls-54" d="m106.41,225.41c-1.64,0-2.98-1.33-2.98-2.98s1.33-2.98,2.98-2.98,2.98,1.33,2.98,2.98-1.33,2.98-2.98,2.98"/>
        <path class="cls-52" d="m104.46,223.12l-.68-.94h.68l.42-.54s.02-.02.06-.04c.04-.03.12-.04.12-.04h.54v-.19h.25l.14-.33h.18l-.07.18.1.14h.65v.19h1.06s.09,0,.15.05c.08.07.09.12.09.12l.17.45h.38l.36.94s-.41-.25-1.08-.22c-.54.03-.75.22-1.37.22-.34,0-.84-.17-1.23-.17-.28,0-.75.11-.9.18m.3.43c.22-.06.54-.15,1.08-.04.27.05.52.11.77.12.33,0,.51-.06.76-.12.23-.06.49-.11.69-.11.35,0,.62.06.76.13l-.11-.29c-.29-.1-.78-.15-1.35.01-.24.07-.48.12-.74.12-.23,0-.45-.04-.67-.09-.72-.17-.99-.05-1.36.04l.15.22Zm0-1.37h.67v-.41h-.26s-.05,0-.11.05c-.04.02-.11.12-.11.12l-.18.24Zm1.71,0h.69v-.41h-.69v.41Zm1.47-.31s-.02-.05-.05-.07c-.04-.02-.07-.03-.07-.03h-.48v.41h.72l-.12-.31Zm-2.34.31h.7v-.41h-.7v.41Z"/>
        <path class="cls-52" d="m63.27,219.34c1.72,0,3.11,1.39,3.11,3.11s-1.39,3.11-3.11,3.11-3.11-1.39-3.11-3.11,1.39-3.11,3.11-3.11"/>
        <path class="cls-54" d="m63.27,225.24c-1.54,0-2.79-1.25-2.79-2.79s1.25-2.79,2.79-2.79,2.79,1.25,2.79,2.79-1.25,2.79-2.79,2.79"/>
        <path class="cls-52" d="m61.44,223.09l-.64-.88h.64l.39-.51s.02-.02.05-.04c.04-.03.11-.03.11-.03h.51v-.18h.23l.13-.3h.17l-.07.17.1.14h.61v.18h.99s.09,0,.14.05c.08.06.08.11.08.11l.16.42h.36l.33.88s-.39-.24-1.01-.21c-.51.03-.71.2-1.29.2-.32,0-.79-.15-1.15-.16-.27,0-.7.11-.85.17m.28.4c.21-.05.5-.14,1.01-.03.25.05.49.11.72.12.31,0,.48-.05.71-.11.21-.05.46-.1.65-.1.33,0,.58.06.72.12l-.1-.27c-.27-.09-.73-.14-1.27,0-.22.07-.45.11-.69.11-.21,0-.42-.04-.63-.08-.67-.16-.93-.05-1.27.04l.14.21Zm0-1.28h.63v-.38h-.25s-.05,0-.11.04c-.04.02-.1.12-.1.12l-.17.22Zm1.6,0h.65v-.38h-.65v.38Zm1.38-.29s-.02-.04-.04-.06c-.04-.02-.07-.03-.07-.03h-.45v.38h.68l-.11-.29Zm-2.19.29h.65v-.38h-.65v.38Z"/>
        <path class="cls-52" d="m179.84,159.01c1.72,0,3.11,1.39,3.11,3.11s-1.39,3.11-3.11,3.11-3.11-1.39-3.11-3.11,1.39-3.11,3.11-3.11"/>
        <path class="cls-54" d="m179.84,164.91c-1.54,0-2.79-1.25-2.79-2.79s1.25-2.79,2.79-2.79,2.79,1.25,2.79,2.79-1.25,2.79-2.79,2.79"/>
        <path class="cls-52" d="m178.02,162.76l-.64-.88h.64l.39-.51s.02-.02.05-.04c.04-.03.11-.03.11-.03h.51v-.18h.23l.13-.3h.17l-.07.17.1.14h.61v.18h.99s.09,0,.14.05c.08.06.08.11.08.11l.16.42h.36l.33.88s-.39-.24-1.01-.21c-.51.03-.71.2-1.29.2-.32,0-.79-.15-1.15-.16-.27,0-.7.11-.85.17m.28.4c.21-.05.5-.14,1.01-.03.25.05.49.11.72.12.31,0,.48-.05.71-.11.21-.05.46-.1.65-.1.33,0,.58.06.72.12l-.1-.27c-.27-.09-.73-.14-1.26,0-.22.07-.45.11-.69.11-.21,0-.42-.04-.63-.08-.67-.16-.93-.05-1.27.04l.14.21Zm0-1.28h.63v-.38h-.25s-.05,0-.11.04c-.04.02-.1.12-.1.12l-.17.22Zm1.6,0h.65v-.38h-.65v.38Zm1.38-.29s-.02-.04-.04-.06c-.04-.02-.07-.03-.07-.03h-.45v.38h.68l-.11-.29Zm-2.19.29h.65v-.38h-.65v.38Z"/>
        <path class="cls-52" d="m213.36,141.75c1.72,0,3.11,1.39,3.11,3.11s-1.39,3.11-3.11,3.11-3.11-1.39-3.11-3.11,1.39-3.11,3.11-3.11"/>
        <path class="cls-54" d="m213.36,147.65c-1.54,0-2.79-1.25-2.79-2.79s1.25-2.79,2.79-2.79,2.79,1.25,2.79,2.79-1.25,2.79-2.79,2.79"/>
        <path class="cls-52" d="m211.53,145.49l-.64-.88h.64l.39-.51s.02-.02.05-.04c.04-.03.11-.03.11-.03h.51v-.18h.23l.13-.3h.17l-.07.17.1.14h.61v.18h.99s.09,0,.14.05c.08.06.08.11.08.11l.16.42h.36l.33.88s-.39-.24-1.01-.21c-.51.03-.71.2-1.29.2-.32,0-.79-.15-1.15-.16-.27,0-.7.11-.85.17m.28.4c.21-.05.5-.14,1.01-.03.25.05.49.11.72.12.31,0,.48-.05.71-.11.21-.05.46-.1.65-.1.33,0,.58.06.72.12l-.1-.27c-.27-.09-.73-.14-1.27,0-.22.07-.45.11-.69.11-.21,0-.42-.04-.63-.08-.67-.16-.93-.05-1.27.04l.14.21Zm0-1.28h.63v-.38h-.25s-.05,0-.11.04c-.03.02-.1.12-.1.12l-.17.22Zm1.6,0h.65v-.38h-.65v.38Zm1.38-.29s-.02-.04-.04-.06c-.04-.02-.07-.03-.07-.03h-.45v.38h.68l-.11-.29Zm-2.19.29h.65v-.38h-.65v.38Z"/>
        <path class="cls-52" d="m137.03,158.87c1.72,0,3.11,1.39,3.11,3.11s-1.39,3.11-3.11,3.11-3.11-1.39-3.11-3.11,1.39-3.11,3.11-3.11"/>
        <path class="cls-54" d="m137.03,164.77c-1.54,0-2.79-1.25-2.79-2.79s1.25-2.79,2.79-2.79,2.79,1.25,2.79,2.79-1.25,2.79-2.79,2.79"/>
        <path class="cls-52" d="m135.21,162.62l-.64-.88h.64l.39-.51s.02-.02.05-.04c.04-.03.11-.03.11-.03h.51v-.18h.23l.13-.3h.17l-.07.17.1.14h.61v.18h.99s.09,0,.14.05c.08.06.08.11.08.11l.16.42h.36l.33.88s-.39-.24-1.01-.21c-.51.03-.71.2-1.29.2-.32,0-.79-.15-1.15-.16-.27,0-.7.11-.85.17m.28.4c.21-.05.5-.14,1.01-.03.25.05.49.11.72.12.31,0,.48-.05.71-.11.21-.05.46-.1.65-.1.33,0,.58.06.72.12l-.1-.27c-.27-.09-.73-.14-1.27,0-.22.07-.45.11-.69.11-.21,0-.42-.04-.63-.08-.67-.16-.93-.05-1.27.04l.14.21Zm0-1.28h.63v-.38h-.25s-.05,0-.11.04c-.04.02-.1.12-.1.12l-.17.22Zm1.6,0h.65v-.38h-.65v.38Zm1.38-.29s-.02-.04-.04-.06c-.04-.02-.07-.03-.07-.03h-.45v.38h.68l-.11-.29Zm-2.19.29h.65v-.38h-.65v.38Z"/>
        <path class="cls-52" d="m148.29,164.8c1.72,0,3.11,1.39,3.11,3.11s-1.39,3.11-3.11,3.11-3.11-1.39-3.11-3.11,1.39-3.11,3.11-3.11"/>
        <path class="cls-54" d="m148.29,170.7c-1.54,0-2.79-1.25-2.79-2.79s1.25-2.79,2.79-2.79,2.79,1.25,2.79,2.79-1.25,2.79-2.79,2.79"/>
        <path class="cls-52" d="m146.46,168.55l-.64-.88h.64l.39-.51s.02-.02.05-.04c.04-.03.11-.03.11-.03h.51v-.18h.23l.13-.3h.17l-.07.17.1.14h.61v.18h.99s.09,0,.14.05c.08.06.08.11.08.11l.16.42h.36l.33.88s-.39-.24-1.01-.21c-.51.03-.71.2-1.29.2-.32,0-.79-.15-1.15-.16-.27,0-.7.11-.85.17m.28.4c.21-.05.5-.14,1.01-.03.25.05.49.11.72.12.31,0,.48-.05.71-.11.21-.05.46-.1.65-.1.33,0,.58.06.72.12l-.1-.27c-.27-.09-.73-.14-1.27,0-.22.07-.45.11-.69.11-.21,0-.42-.04-.63-.08-.67-.16-.93-.05-1.27.04l.14.21Zm0-1.28h.63v-.38h-.25s-.05,0-.11.04c-.04.02-.1.12-.1.12l-.17.22Zm1.6,0h.65v-.38h-.65v.38Zm1.38-.29s-.02-.04-.04-.06c-.04-.02-.07-.03-.07-.03h-.45v.38h.68l-.11-.29Zm-2.19.29h.65v-.38h-.65v.38Z"/>
        <path class="cls-52" d="m301.5,119.86c1.72,0,3.11,1.39,3.11,3.11s-1.39,3.11-3.11,3.11-3.11-1.39-3.11-3.11,1.39-3.11,3.11-3.11"/>
        <path class="cls-54" d="m301.5,125.76c-1.54,0-2.79-1.25-2.79-2.79s1.25-2.79,2.79-2.79,2.79,1.25,2.79,2.79-1.25,2.79-2.79,2.79"/>
        <path class="cls-52" d="m299.67,123.61l-.64-.88h.64l.39-.51s.02-.02.05-.04c.04-.03.11-.03.11-.03h.51v-.18h.23l.13-.3h.17l-.07.17.1.14h.61v.18h.99s.09,0,.14.05c.08.06.08.11.08.11l.16.42h.36l.33.88s-.39-.24-1.01-.21c-.51.03-.71.2-1.29.2-.32,0-.79-.15-1.15-.16-.27,0-.7.11-.85.17m.28.4c.21-.05.5-.14,1.01-.03.25.05.49.11.72.12.31,0,.48-.05.71-.11.21-.05.46-.1.65-.1.33,0,.58.06.72.12l-.1-.27c-.27-.09-.73-.14-1.27,0-.22.07-.45.11-.69.11-.21,0-.42-.04-.63-.08-.67-.16-.93-.05-1.27.04l.14.21Zm0-1.28h.63v-.38h-.25s-.05,0-.11.04c-.03.02-.1.12-.1.12l-.17.22Zm1.6,0h.65v-.38h-.65v.38Zm1.38-.29s-.02-.04-.04-.06c-.04-.02-.07-.03-.07-.03h-.45v.38h.68l-.11-.29Zm-2.19.29h.65v-.38h-.65v.38Z"/>
      </g>
      <text class="cls-67" transform="translate(69.31 221.37)"><tspan x="0" y="0">River Thames</tspan></text>
      <text class="cls-67" transform="translate(274.88 127.04)"><tspan x="0" y="0">River Thames</tspan></text>
      <g>
        <path class="cls-52" d="m269.61,125.64c1.72,0,3.11,1.39,3.11,3.11s-1.39,3.11-3.11,3.11-3.11-1.39-3.11-3.11,1.39-3.11,3.11-3.11"/>
        <path class="cls-54" d="m269.61,131.54c-1.54,0-2.79-1.25-2.79-2.79s1.25-2.79,2.79-2.79,2.79,1.25,2.79,2.79-1.25,2.79-2.79,2.79"/>
        <path class="cls-52" d="m267.78,129.39l-.64-.88h.64l.39-.51s.02-.02.05-.04c.04-.03.11-.03.11-.03h.51v-.18h.23l.13-.3h.17l-.07.17.1.14h.61v.18h.99s.09,0,.14.05c.08.06.08.11.08.11l.16.42h.36l.33.88s-.39-.24-1.01-.21c-.51.03-.71.2-1.29.2-.32,0-.79-.15-1.15-.16-.27,0-.7.11-.85.17m.28.4c.21-.05.5-.14,1.01-.03.25.05.49.11.72.12.31,0,.48-.05.71-.11.21-.05.46-.1.65-.1.33,0,.58.06.72.12l-.1-.27c-.27-.09-.73-.14-1.27,0-.22.07-.45.11-.69.11-.21,0-.42-.04-.63-.08-.67-.16-.93-.05-1.27.04l.14.21Zm0-1.28h.63v-.38h-.25s-.05,0-.11.04c-.03.02-.1.12-.1.12l-.17.22Zm1.6,0h.65v-.38h-.65v.38Zm1.38-.29s-.02-.04-.04-.06c-.04-.02-.07-.03-.07-.03h-.45v.38h.68l-.11-.29Zm-2.19.29h.65v-.38h-.65v.38Z"/>
      </g>
      <g>
        <line class="cls-18" x1="191.83" y1="232.51" x2="191.83" y2="234.21"/>
        <line class="cls-10" x1="191.83" y1="235.94" x2="191.83" y2="235.95"/>
        <path class="cls-41" d="m196.75,215.48v-11.78c0-1.81.69-3.62,2.07-5.01l12.9-12.9.2-.21c1.62-1.62,7.84-7.8,7.89-7.85,1.2-1.21,2.19-3.58,2.19-5.29v-49.4c-.01-1.7-1-4.08-2.2-5.29l-6.4-6.46c-1.21-1.21-2.19-3.59-2.19-5.29l.1-94.26"/>
        <path class="cls-17" d="m196.75,215.48v-11.78c0-1.81.69-3.62,2.07-5.01l12.9-12.9.2-.21c1.62-1.62,7.84-7.8,7.89-7.85,1.2-1.21,2.19-3.58,2.19-5.29v-49.4c-.01-1.7-1-4.08-2.2-5.29l-6.4-6.46c-1.21-1.21-2.19-3.59-2.19-5.29l.1-92.84"/>
        <path class="cls-41" d="m192.27,231.76l2.4-2.4c1.38-1.38,2.08-3.2,2.08-5.01v-13.15"/>
        <path class="cls-17" d="m191.67,232.35l.6-.59,2.4-2.4c1.38-1.38,2.08-3.2,2.08-5.01v-13.15"/>
        <path class="cls-38" d="m221.99,146.98v.56c0,1.34.52,2.6,1.47,3.55.95.95,2.21,1.47,3.54,1.47h18.59"/>
        <path class="cls-18" d="m221.99,146.98v.56c0,.39.04.76.13,1.13"/>
        <path class="cls-22" d="m222.65,150.02c.22.39.49.74.81,1.07.55.55,1.22.96,1.94,1.21"/>
        <path class="cls-25" d="m226.1,152.47c.29.05.6.08.9.08h18.62"/>
        <rect class="cls-54" x="221.6" y="150" width=".78" height="3.58"/>
      </g>
      <g>
        <path class="cls-35" d="m32.02,50.5h15.4c1.6,0,3.83.92,4.95,2.05l19.11,19.14c1.13,1.13,3.36,2.05,4.95,2.05h69.66s29.84,0,29.84,0c1.6,0,3.82-.92,4.95-2.05l11.34-11.34,1.61-1.6,3.41-3.42c1.13-1.13,3.36-2.05,4.95-2.05h32.6s32.83-.01,32.83-.01"/>
        <path class="cls-20" d="m35.88,50.5h11.53c1.6,0,3.83.92,4.95,2.05l19.11,19.14c1.13,1.13,3.36,2.05,4.95,2.05h69.66s1.91,0,1.91,0h27.93c1.6,0,3.82-.92,4.95-2.05l10.45-10.45,2.49-2.49,3.41-3.42c1.13-1.13,3.36-2.05,4.95-2.05h33.47s27.89-.01,27.89-.01"/>
        <rect class="cls-54" x="88.07" y="71.44" width="2.64" height="4.65"/>
        <rect class="cls-54" x="117.24" y="71.44" width="2.64" height="4.65"/>
        <rect class="cls-54" x="159.25" y="71.35" width="2.64" height="4.65"/>
        <rect class="cls-54" x="121.6" y="72.46" width="6.11" height="2.64" transform="translate(-15.66 109.75) rotate(-45)"/>
        <rect class="cls-54" x="256.31" y="50.97" width="2.65" height="4.65"/>
        <polygon class="cls-54" points="233.92 54.67 224.37 54.76 221.35 51.73 231.12 51.86 233.92 54.67"/>
      </g>
      <path class="cls-5" d="m167.18,174.1h32.88c1.6,0,3.82-.92,4.95-2.05l12.19-12.2.8-.79,12.04-12.1.66-.66,10.12-10.12c1.13-1.13,2.05-3.36,2.05-4.95v-33.47c0-1.6.92-3.82,2.05-4.95,1.14-1.14,5-5,5-5"/>
      <rect class="cls-56" x="104.48" y="53.02" width="2.6" height="1.46" transform="translate(-7.02 90.54) rotate(-45)"/>
      <g>
        <path class="cls-42" d="m184.08,224.51l-15.33-15.33c-1.13-1.13-2.05-3.36-2.05-4.95v-66.76c0-1.95-.75-3.89-2.05-4.95l-44.04-44.02c-1.3-1.07-2.05-3.01-2.05-4.95v-11.98c0-1.94-.75-3.89-2.05-4.95l-44.39-44.77c-1.13-1.13-3.36-2.05-4.95-2.05H1.79"/>
        <rect class="cls-56" x="21.4" y="17.32" width="1.37" height="2.44"/>
        <rect class="cls-56" x="166.71" y="198.76" width="2.44" height="1.37"/>
      </g>
      <rect class="cls-50" x="98.58" y="199.92" width="2.44" height="1.37"/>
      <path class="cls-24" d="m106.86,241.75l-3.79-3.79c-1.13-1.13-2.05-3.36-2.05-4.95l.16-106.06v-.83s.03-25.99.03-25.99c0-1.6.91-3.81,2.03-4.94l10.33-10.33,1.21-1.22,44.33-44.33,1.15-1.15,15-15c1.13-1.13,3.36-2.05,4.95-2.05h20.53"/>
      <rect class="cls-57" x="218.65" y="189.8" width="1.37" height="2.72" transform="translate(-70.93 211.08) rotate(-45)"/>
      <rect class="cls-57" x="231.5" y="29.41" width="1.37" height="2.44"/>
      <line class="cls-21" x1="165.05" y1="243.54" x2="163.84" y2="244.75"/>
      <g>
        <rect class="cls-57" x="158.15" y="62.61" width="2.44" height="1.36"/>
        <path class="cls-34" d="m59.5,229.12h53.74c1.6,0,3.82.93,4.95,2.06l4.07,4.07,1.18,1.17c2.59,2.59,6.3,6.49,6.3,6.49,1.13,1.13,3.35,2.05,4.95,2.05h6.06s8.29,0,8.29,0c1.59,0,3.82-.92,4.95-2.05l3.9-3.9"/>
        <path class="cls-21" d="m167.82,12.19v7.6c0,1.59-.92,3.82-2.05,4.95l-3.15,3.15c-1.13,1.13-2.05,3.36-2.05,4.95v200.57c0,1.6-.93,3.82-2.05,4.95l-1.67,1.67"/>
        <path class="cls-21" d="m162.59,246l45.7-45.7,2.08-2.08,45.21-45.21c1.13-1.13,2.05-3.36,2.05-4.95v-59.83s0-24.26,0-24.26v-16.13c0-1.96-.8-3.73-2.08-5.01l-5.15-5.14-1.08-1.08-2.7-2.7c-1.38-1.38-3.2-2.07-5.01-2.07h-11.75s-12.71,0-12.71,0c-1.81,0-3.63-.69-5.01-2.07l-5.35-5.35-.59-.59-6.14-6.14c-1.28-1.28-3.05-2.07-5.01-2.07h-3.54s-1.74,0-1.74,0h-8.73c-1.34,0-2.6-.51-3.54-1.46-.66-.66-1.11-1.47-1.33-2.36"/>
        <line class="cls-21" x1="257.63" y1="63.76" x2="257.63" y2="113.47"/>
      </g>
      <rect class="cls-54" x="202.01" y="50.88" width="2.65" height="4.65"/>
      <rect class="cls-52" x="200.9" y="44.15" width="2.44" height="1.37"/>
      <rect class="cls-52" x="37.18" y="140.27" width="1.37" height="2.44"/>
      <g>
        <rect class="cls-52" x="79.07" y="116.62" width="1.41" height="2.52" transform="translate(-59.94 90.73) rotate(-44.91)"/>
        <rect class="cls-52" x="66.86" y="128.83" width="1.41" height="2.52" transform="translate(-72.2 85.88) rotate(-45)"/>
        <path class="cls-15" d="m14.68,142.6h28.54s2.41,0,2.41,0h8.46c1.6-.01,3.83-.93,4.95-2.06l19.6-19.6,2.37-2.37,9.92-9.92c1.13-1.13,3.36-2.05,4.95-2.05h70.03c1.6,0,3.83-.92,4.95-2.05l28.07-28.07,1.03-1.01,1.32-1.32c1.13-1.13,2.05-3.36,2.05-4.95v-30.31s0-15.76,0-15.76"/>
        <rect class="cls-52" x="173.31" y="101.93" width="1.37" height="2.44" transform="translate(-21.98 153.25) rotate(-45)"/>
      </g>
      <rect class="cls-59" x="42.14" y="102.38" width="1.36" height="2.44"/>
      <rect class="cls-59" x="64.63" y="84.42" width="1.37" height="2.44" transform="translate(-41.41 71.1) rotate(-44.91)"/>
      <rect class="cls-59" x="59.3" y="93.15" width="1.37" height="2.44" transform="translate(-49.16 70.05) rotate(-45)"/>
      <g>
        <path class="cls-4" d="m22.8,102.38c14.82,0,24.24,0,24.6,0,1.6,0,3.83-.92,4.96-2.05l18.42-18.42c1.13-1.13,3.36-2.05,4.95-2.05h106.6c1.59,0,3.82.92,4.95,2.05l9.7,9.71c1.13,1.13,3.36,2.05,4.96,2.05h35.9c1.59,0,3.83-.92,4.95-2.05l12.03-12.03.94-.94,8.82-8.82"/>
        <rect class="cls-59" x="202.96" y="93.74" width="1.38" height="2.41"/>
      </g>
      <path class="cls-37" d="m12.92,28.8c1.73-1.73,4.03-2.68,6.47-2.68h60.82s2,0,2,0h117.48c2.44,0,4.74.96,6.47,2.68l36.78,36.77c.92.92,2.16,1.47,3.54,1.47.29,0,3.67.04,9.52.04h1.16c14.19,0,42.8,0,76.9,0,.35,0,.69,0,1.04,0,.22,0,.45,0,.67,0,.07,0,.14,0,.21,0"/>
      <g>
        <path class="cls-19" d="m14.37,30.26c1.38-1.38,3.19-2.07,5.01-2.07h60.63s1.77,0,1.77,0h117.88c1.96,0,3.73.8,5.01,2.08l36.78,36.77c1.28,1.28,3.05,2.07,5.01,2.07h18.36l2.51.04h35.81c1.96,0,3.73.79,5.01,2.07s2.07,3.05,2.07,5.01v22.4c0,1.34-.52,2.6-1.47,3.54-.95.95-2.21,1.47-3.55,1.47h-57.89c-1.86,0-3.61.73-4.93,2.04l-40.83,40.84c-.95.95-2.21,1.47-3.54,1.47H30.59c-1.96,0-3.73-.79-5.01-2.07-1.38-1.38-2.07-3.2-2.07-5.01V39.76c0-1.46.59-2.77,1.54-3.73l.04-.04c1.03-1.03,2.38-1.54,3.73-1.54h13.09"/>
        <rect class="cls-55" x="37.18" y="145.51" width="1.36" height="2.44"/>
        <rect class="cls-55" x="23.51" y="117.56" width="2.44" height="1.37"/>
        <rect class="cls-55" x="216.64" y="127.83" width="1.37" height="2.44" transform="translate(-27.6 191.47) rotate(-45)"/>
        <rect class="cls-55" x="23.51" y="71.96" width="2.44" height="1.37"/>
        <rect class="cls-55" x="307.8" y="83.24" width="2.44" height="1.37"/>
      </g>
      <g>
        <rect class="cls-53" x="79.7" y="150.06" width="1.36" height="2.44"/>
        <rect class="cls-53" x="37.16" y="147.58" width="1.37" height="2.44"/>
        <rect class="cls-53" x="218.08" y="129.29" width="1.37" height="2.44" transform="translate(-28.21 192.92) rotate(-45)"/>
        <path class="cls-26" d="m14.74,148.08c1.85,0,3.66-.89,4.73-1.96,1.07-1.07,1.96-2.77,1.96-4.72V39.77c0-1.96.76-3.8,2.15-5.19l.04-.04c1.39-1.39,3.23-2.15,5.19-2.15h12.95"/>
        <rect class="cls-53" x="117.04" y="150.06" width="1.36" height="2.44"/>
        <rect class="cls-53" x="190.29" y="150.06" width="1.36" height="2.44"/>
        <rect class="cls-53" x="21.43" y="117.57" width="2.44" height="1.37"/>
        <rect class="cls-53" x="21.43" y="71.96" width="2.44" height="1.37"/>
        <path class="cls-26" d="m335.18,69.16h-3.22c-1.95,0-3.72.79-5.01,2.07-.54.54-2.61,2.61-5.46,5.46l-1.62,1.62c-6.16,6.16-5.25,5.25-5.54,5.54-1.38,1.38-2.07,3.19-2.07,5.01,0,.76,0,1.66,0,5.69v1.05s0,3.42,0,3.42c-.05,2.05-.91,3.53-2.12,4.73-1.07,1.06-2.7,1.88-4.56,1.96h-7.72s-50.53,0-50.53,0c-1.31,0-2.54.51-3.47,1.44l-40.84,40.83c-1.28,1.28-3.05,2.07-5.01,2.07H13.3"/>
        <rect class="cls-53" x="334.62" y="69.2" width="1.37" height="2.72"/>
      </g>
      <g>
        <path class="cls-9" d="m99.42,30.28h100.25c1.34,0,2.6.52,3.54,1.46l36.76,36.76c1.73,1.73,4.03,2.68,6.47,2.68h52.22s4.49,0,4.49,0c1.34,0,2.6.52,3.54,1.47.95.95,1.47,2.2,1.47,3.54v7.05"/>
        <rect class="cls-49" x="305.73" y="83.25" width="2.06" height="1.37"/>
      </g>
      <rect class="cls-55" x="79.71" y="147.98" width="1.36" height="2.44"/>
      <polygon class="cls-51" points="334.62 69.75 335.98 69.75 335.98 67.91 334.62 67.05 334.62 69.75"/>
      <line class="cls-32" x1="122.34" y1="76.09" x2="127.04" y2="71.39"/>
      <line class="cls-11" x1="118.56" y1="76.17" x2="118.56" y2="71.43"/>
      <line class="cls-16" x1="89.39" y1="76.22" x2="89.39" y2="69.75"/>
      <line class="cls-36" x1="160.57" y1="76.17" x2="160.57" y2="69.75"/>
      <line class="cls-21" x1="257.64" y1="50.05" x2="257.64" y2="56.11"/>
      <rect class="cls-55" x="117.05" y="147.98" width="1.36" height="2.44"/>
      <rect class="cls-55" x="190.3" y="147.98" width="1.36" height="2.44"/>
      <rect class="cls-49" x="118.92" y="30.27" width="1.36" height="2.44"/>
      <rect class="cls-55" x="118.9" y="28.25" width="1.36" height="2.44"/>
      <rect class="cls-51" x="118.88" y="26.18" width="1.36" height="2.44"/>
      <g>
        <path class="cls-54" d="m40.8,29.8v1.04c-.92.4-1.56,1.31-1.56,2.38,0,1.43,1.16,2.59,2.59,2.59s2.59-1.16,2.59-2.59c0-1.06-.64-1.97-1.56-2.38v-1.04c.92-.4,1.56-1.31,1.56-2.37,0-1.43-1.16-2.59-2.59-2.59s-2.59,1.16-2.59,2.59c0,1.06.64,1.97,1.56,2.37"/>
        <path class="cls-57" d="m39.76,27.42c0-1.15.93-2.07,2.07-2.07s2.07.93,2.07,2.07c0,.97-.66,1.78-1.56,2.01v1.78c.89.23,1.56,1.04,1.56,2.01,0,1.15-.93,2.07-2.07,2.07s-2.07-.93-2.07-2.07c0-.97.66-1.78,1.55-2.01v-1.78c-.9-.23-1.56-1.04-1.56-2.01m.52,2.69v.41c-.93.54-1.56,1.54-1.56,2.69,0,1.72,1.39,3.11,3.11,3.11s3.11-1.39,3.11-3.11c0-1.15-.63-2.15-1.56-2.69v-.41c.93-.54,1.56-1.54,1.56-2.69,0-1.72-1.39-3.11-3.11-3.11s-3.11,1.39-3.11,3.11c0,1.15.63,2.15,1.56,2.69"/>
        <rect class="cls-57" x="16.63" y="13.37" width="3.11" height="42.92" transform="translate(-19.3 23.03) rotate(-44.96)"/>
        <path class="cls-54" d="m25.04,39.15c0,1.43-1.16,2.59-2.59,2.59s-2.59-1.16-2.59-2.59,1.16-2.59,2.59-2.59,2.59,1.16,2.59,2.59"/>
        <path class="cls-57" d="m25.56,39.17c0,1.72-1.39,3.11-3.11,3.11s-3.11-1.39-3.11-3.11,1.39-3.11,3.11-3.11,3.11,1.39,3.11,3.11m-3.11,2.07c1.14,0,2.07-.93,2.07-2.07s-.93-2.08-2.07-2.08-2.07.93-2.07,2.08.93,2.07,2.07,2.07"/>
        <rect class="cls-54" x="16.98" y="14.04" width="1.03" height="40.2" transform="translate(-19.02 22.37) rotate(-45)"/>
        <path class="cls-52" d="m13.29,26.82c1.72,0,3.11,1.39,3.11,3.11s-1.39,3.11-3.11,3.11-3.11-1.39-3.11-3.11,1.39-3.11,3.11-3.11"/>
        <path class="cls-54" d="m13.29,32.72c-1.54,0-2.79-1.25-2.79-2.79s1.25-2.79,2.79-2.79,2.79,1.25,2.79,2.79-1.25,2.79-2.79,2.79"/>
        <path class="cls-52" d="m12.24,30.83c.15.49.6.85,1.14.85.65,0,1.18-.53,1.18-1.18,0-.34-.15-.65-.39-.87l.07-.51c.46.29.76.8.76,1.39,0,.9-.73,1.64-1.63,1.64-.59,0-1.1-.31-1.39-.77l.25-.52Z"/>
        <path class="cls-52" d="m13.35,27.87c0,.26.2.46.46.46s.46-.21.46-.46-.21-.46-.46-.46-.46.21-.46.46"/>
        <path class="cls-52" d="m13.59,28.68l-.05.32h-.99s-.21.02-.21.22.21.22.21.22h.93l-.05.31h-1.26s-.09,0-.13.05c-.03.03-.08.13-.08.13l-.7,1.42s-.08.19.12.29c.2.11.33-.1.33-.1l.55-1.13s.04-.07.1-.1c.06-.03.11-.03.11-.03h1.15s.12,0,.22-.09c.1-.09.11-.2.11-.2l.17-1.24s0-.26-.27-.28c-.2-.02-.27.2-.27.2"/>
        <path class="cls-52" d="m3.11,16.63c1.72,0,3.11,1.39,3.11,3.11s-1.39,3.11-3.11,3.11-3.11-1.39-3.11-3.11,1.39-3.11,3.11-3.11"/>
        <path class="cls-54" d="m3.11,22.53c-1.54,0-2.79-1.25-2.79-2.79s1.25-2.79,2.79-2.79,2.79,1.25,2.79,2.79-1.25,2.79-2.79,2.79"/>
        <path class="cls-52" d="m2.05,20.65c.15.49.6.85,1.14.85.65,0,1.18-.53,1.18-1.18,0-.34-.15-.65-.39-.87l.07-.51c.46.29.76.8.76,1.39,0,.9-.73,1.64-1.63,1.64-.59,0-1.1-.31-1.39-.77l.25-.52Z"/>
        <path class="cls-52" d="m3.16,17.68c0,.26.2.46.46.46s.46-.21.46-.46-.21-.46-.46-.46-.46.21-.46.46"/>
        <path class="cls-52" d="m3.4,18.49l-.05.32h-.99s-.21.02-.21.22.21.22.21.22h.93l-.05.31h-1.26s-.08,0-.13.05c-.03.03-.08.13-.08.13l-.7,1.42s-.08.19.12.29c.2.11.33-.1.33-.1l.55-1.13s.04-.07.1-.1c.06-.03.11-.03.11-.03h1.15s.12,0,.22-.09c.1-.09.11-.2.11-.2l.17-1.24s0-.26-.27-.28c-.2-.02-.27.2-.27.2"/>
        <path class="cls-52" d="m33.78,47.39c1.72,0,3.11,1.39,3.11,3.11s-1.39,3.11-3.11,3.11-3.11-1.39-3.11-3.11,1.39-3.11,3.11-3.11"/>
        <path class="cls-54" d="m32.73,51.4c.15.49.6.84,1.14.84.65,0,1.18-.53,1.18-1.18,0-.34-.14-.65-.38-.87l.07-.51c.46.29.76.8.76,1.39,0,.9-.73,1.64-1.63,1.64-.59,0-1.1-.31-1.39-.77l.25-.52Z"/>
        <path class="cls-54" d="m33.83,48.44c0,.25.2.46.46.46s.46-.21.46-.46-.21-.46-.46-.46-.46.21-.46.46"/>
        <path class="cls-54" d="m34.08,49.25l-.05.33h-.99s-.21.02-.21.22.21.22.21.22h.93l-.05.31h-1.26s-.09,0-.13.05c-.03.03-.08.13-.08.13l-.69,1.43s-.08.18.12.29c.2.11.33-.1.33-.1l.55-1.13s.04-.07.1-.1c.06-.03.11-.03.11-.03h1.15s.12,0,.22-.09c.09-.09.11-.2.11-.2l.17-1.24s0-.26-.27-.28c-.2-.01-.27.19-.27.19"/>
        <rect class="cls-57" x="10.92" y="142.6" width="3.21" height="8.43"/>
        <rect class="cls-54" x="11.99" y="142.41" width="1.06" height="8.73"/>
        <path class="cls-52" d="m12.52,139.45c1.71,0,3.1,1.39,3.1,3.1s-1.39,3.09-3.1,3.09-3.09-1.38-3.09-3.09,1.38-3.1,3.09-3.1"/>
        <path class="cls-54" d="m11.48,143.45c.15.48.6.84,1.13.84.65,0,1.18-.53,1.18-1.18,0-.34-.15-.65-.38-.87l.07-.51c.46.29.76.8.76,1.38,0,.9-.73,1.63-1.63,1.63-.58,0-1.1-.31-1.39-.77l.25-.52Z"/>
        <path class="cls-54" d="m12.58,140.49c0,.25.2.46.46.46s.46-.2.46-.46-.21-.46-.46-.46-.46.21-.46.46"/>
        <path class="cls-54" d="m12.82,141.3l-.05.32h-.99s-.2.02-.2.22.2.22.2.22h.93l-.04.3h-1.25s-.08,0-.13.05c-.03.03-.08.13-.08.13l-.7,1.42s-.08.18.12.29c.2.11.33-.1.33-.1l.55-1.13s.05-.07.1-.1c.06-.03.11-.03.11-.03h1.15s.12,0,.22-.09c.09-.09.11-.2.11-.2l.17-1.24s0-.26-.27-.27c-.2-.01-.27.19-.27.19"/>
        <path class="cls-52" d="m12.52,145.89c1.71,0,3.1,1.39,3.1,3.1s-1.39,3.09-3.1,3.09-3.09-1.38-3.09-3.09,1.38-3.1,3.09-3.1"/>
        <path class="cls-54" d="m11.48,149.89c.15.49.6.84,1.13.84.65,0,1.18-.53,1.18-1.18,0-.35-.15-.65-.38-.87l.07-.51c.46.29.76.8.76,1.38,0,.9-.73,1.63-1.63,1.63-.58,0-1.1-.31-1.39-.77l.25-.52Z"/>
        <path class="cls-54" d="m12.58,146.94c0,.25.2.46.46.46s.46-.21.46-.46-.21-.46-.46-.46-.46.21-.46.46"/>
        <path class="cls-54" d="m12.82,147.74l-.05.32h-.99s-.2.02-.2.22.2.22.2.22h.93l-.04.3h-1.25s-.08,0-.13.05c-.03.03-.08.13-.08.13l-.7,1.42s-.08.19.12.29c.2.11.33-.1.33-.1l.55-1.13s.05-.07.1-.1c.06-.03.11-.03.11-.03h1.15s.12,0,.22-.09c.09-.09.11-.2.11-.2l.17-1.24s0-.25-.27-.27c-.2-.01-.27.2-.27.2"/>
        <rect class="cls-57" x="59.2" y="225.01" width="1.32" height="1.32" transform="translate(-142.04 108.43) rotate(-45)"/>
        <rect class="cls-57" x="187.95" y="228.34" width="1.32" height="1.32" transform="translate(-106.69 200.44) rotate(-45)"/>
        <rect class="cls-57" x="186.53" y="226.93" width="1.32" height="1.32" transform="translate(-106.1 199.03) rotate(-45)"/>
        <path class="cls-52" d="m56.66,225.98c1.71,0,3.09,1.39,3.09,3.1s-1.38,3.09-3.09,3.09-3.1-1.38-3.1-3.09,1.39-3.1,3.1-3.1"/>
        <path class="cls-54" d="m55.61,229.98c.14.49.6.84,1.13.84.65,0,1.18-.53,1.18-1.18,0-.35-.15-.65-.38-.87l.07-.51c.46.29.76.8.76,1.38,0,.9-.73,1.63-1.63,1.63-.58,0-1.1-.31-1.39-.77l.25-.52Z"/>
        <path class="cls-54" d="m56.71,227.03c0,.25.2.46.46.46s.46-.21.46-.46-.21-.46-.46-.46-.46.2-.46.46"/>
        <path class="cls-54" d="m56.96,227.83l-.05.32h-.99s-.2.02-.2.22.2.22.2.22h.93l-.05.3h-1.25s-.08,0-.13.05c-.03.03-.08.13-.08.13l-.69,1.42s-.08.19.12.29c.2.11.32-.1.32-.1l.55-1.13s.05-.07.1-.1c.06-.03.11-.03.11-.03h1.14s.12,0,.22-.09c.09-.09.11-.2.11-.2l.17-1.24s0-.25-.27-.27c-.2-.01-.27.2-.27.2"/>
        <path class="cls-52" d="m79.68,226.03c1.68,0,3.04,1.36,3.04,3.04s-1.36,3.04-3.04,3.04-3.04-1.36-3.04-3.04,1.36-3.04,3.04-3.04"/>
        <path class="cls-54" d="m78.65,229.96c.14.48.59.83,1.11.83.64,0,1.16-.52,1.16-1.16,0-.34-.14-.64-.37-.85l.07-.5c.45.28.75.79.75,1.36,0,.89-.72,1.6-1.6,1.6-.58,0-1.08-.3-1.36-.76l.25-.51Z"/>
        <path class="cls-54" d="m79.73,227.06c0,.25.2.45.45.45s.45-.2.45-.45-.2-.45-.45-.45-.45.2-.45.45"/>
        <path class="cls-54" d="m79.97,227.85l-.05.32h-.97s-.2.02-.2.22.2.22.2.22h.91l-.04.3h-1.23s-.08,0-.13.05c-.03.03-.08.13-.08.13l-.68,1.4s-.08.18.12.29c.2.1.32-.09.32-.09l.54-1.11s.05-.07.1-.1c.06-.03.11-.03.11-.03h1.12s.12,0,.21-.09c.09-.09.11-.19.11-.19l.17-1.21s0-.25-.27-.27c-.2-.01-.26.19-.26.19"/>
        <path class="cls-52" d="m106.41,237.94c1.71,0,3.09,1.39,3.09,3.1s-1.38,3.09-3.09,3.09-3.1-1.38-3.1-3.09,1.39-3.1,3.1-3.1"/>
        <path class="cls-54" d="m105.36,241.94c.14.49.6.84,1.13.84.65,0,1.18-.53,1.18-1.18,0-.35-.15-.65-.38-.87l.07-.51c.46.29.76.8.76,1.38,0,.9-.73,1.63-1.63,1.63-.58,0-1.1-.31-1.39-.77l.25-.52Z"/>
        <path class="cls-54" d="m106.46,238.98c0,.25.2.46.46.46s.46-.21.46-.46-.21-.46-.46-.46-.46.21-.46.46"/>
        <path class="cls-54" d="m106.71,239.79l-.05.32h-.99s-.2.02-.2.22.2.22.2.22h.93l-.05.3h-1.25s-.08,0-.13.05c-.03.03-.08.13-.08.13l-.69,1.42s-.08.19.12.29c.2.11.32-.1.32-.1l.55-1.13s.05-.07.1-.1c.06-.03.11-.03.11-.03h1.14s.12,0,.22-.09c.09-.09.11-.2.11-.2l.17-1.24s0-.25-.27-.27c-.2-.01-.27.2-.27.2"/>
        <path class="cls-54" d="m164.84,246.14c0,1.43-1.16,2.59-2.59,2.59s-2.59-1.16-2.59-2.59,1.16-2.59,2.59-2.59,2.59,1.16,2.59,2.59"/>
        <path class="cls-57" d="m165.36,246.14c0,1.71-1.39,3.11-3.11,3.11s-3.11-1.39-3.11-3.11,1.39-3.11,3.11-3.11,3.11,1.39,3.11,3.11m-3.11,2.07c1.14,0,2.07-.93,2.07-2.07s-.93-2.07-2.07-2.07-2.07.93-2.07,2.07.93,2.07,2.07,2.07"/>
        <rect class="cls-57" x="157.72" y="241.36" width="3.11" height="3.59" transform="translate(-125.29 183.85) rotate(-45)"/>
        <rect class="cls-54" x="158.14" y="239.04" width="1.03" height="7" transform="translate(-125.03 183.22) rotate(-45)"/>
        <path class="cls-54" d="m159.09,240.37c0,1.43-1.16,2.59-2.59,2.59s-2.59-1.16-2.59-2.59,1.16-2.59,2.59-2.59,2.59,1.16,2.59,2.59"/>
        <path class="cls-57" d="m159.61,240.37c0,1.71-1.39,3.11-3.11,3.11s-3.11-1.39-3.11-3.11,1.39-3.11,3.11-3.11,3.11,1.39,3.11,3.11m-3.11,2.07c1.14,0,2.07-.93,2.07-2.07s-.93-2.07-2.07-2.07-2.07.93-2.07,2.07.93,2.07,2.07,2.07"/>
        <rect class="cls-57" x="156.45" y="172.43" width="8.43" height="3.21"/>
        <path class="cls-54" d="m169.28,174.04c0,1.43-1.17,2.59-2.59,2.59s-2.59-1.16-2.59-2.59,1.16-2.59,2.59-2.59,2.59,1.16,2.59,2.59"/>
        <path class="cls-57" d="m169.8,174.04c0,1.71-1.39,3.11-3.11,3.11s-3.11-1.39-3.11-3.11,1.39-3.11,3.11-3.11,3.11,1.39,3.11,3.11m-3.11,2.07c1.14,0,2.07-.93,2.07-2.07s-.93-2.07-2.07-2.07-2.07.93-2.07,2.07.93,2.07,2.07,2.07"/>
        <path class="cls-54" d="m163.14,174.04c0,1.43-1.17,2.59-2.59,2.59s-2.59-1.16-2.59-2.59,1.16-2.59,2.59-2.59,2.59,1.16,2.59,2.59"/>
        <path class="cls-57" d="m163.66,174.04c0,1.71-1.39,3.11-3.11,3.11s-3.11-1.39-3.11-3.11,1.39-3.11,3.11-3.11,3.11,1.39,3.11,3.11m-3.11,2.07c1.14,0,2.07-.93,2.07-2.07s-.93-2.07-2.07-2.07-2.07.93-2.07,2.07.93,2.07,2.07,2.07"/>
        <rect class="cls-54" x="156.26" y="173.51" width="8.73" height="1.06"/>
        <path class="cls-52" d="m154.41,170.94c1.71,0,3.1,1.39,3.1,3.09s-1.39,3.1-3.1,3.1-3.09-1.38-3.09-3.1,1.39-3.09,3.09-3.09"/>
        <path class="cls-54" d="m153.36,174.94c.14.49.6.84,1.13.84.65,0,1.18-.53,1.18-1.18,0-.34-.15-.65-.38-.87l.07-.51c.46.29.76.8.76,1.38,0,.9-.73,1.63-1.63,1.63-.59,0-1.1-.31-1.39-.77l.25-.52Z"/>
        <path class="cls-54" d="m154.46,171.99c0,.25.2.46.46.46s.46-.2.46-.46-.21-.46-.46-.46-.46.21-.46.46"/>
        <path class="cls-54" d="m154.71,172.79l-.05.32h-.99s-.21.02-.21.22.21.22.21.22h.93l-.05.3h-1.25s-.08,0-.13.05c-.03.03-.08.13-.08.13l-.7,1.42s-.08.18.12.29c.2.11.32-.1.32-.1l.55-1.13s.05-.07.1-.1c.06-.03.11-.03.11-.03h1.14s.12,0,.22-.1c.1-.09.11-.19.11-.19l.17-1.24s0-.26-.27-.27c-.2-.01-.27.19-.27.19"/>
        <path class="cls-52" d="m184.29,179.67c1.71,0,3.1,1.39,3.1,3.1s-1.39,3.09-3.1,3.09-3.09-1.38-3.09-3.09,1.39-3.1,3.09-3.1"/>
        <path class="cls-54" d="m183.25,183.67c.14.49.6.84,1.13.84.65,0,1.18-.53,1.18-1.18,0-.35-.15-.65-.38-.87l.07-.51c.46.29.76.8.76,1.38,0,.9-.73,1.63-1.63,1.63-.58,0-1.1-.31-1.39-.77l.25-.52Z"/>
        <path class="cls-54" d="m184.34,180.72c0,.25.2.46.46.46s.46-.21.46-.46-.21-.46-.46-.46-.46.21-.46.46"/>
        <path class="cls-54" d="m184.59,181.52l-.05.32h-.99s-.2.02-.2.22.2.22.2.22h.93l-.05.3h-1.25s-.09,0-.13.05c-.03.03-.08.13-.08.13l-.69,1.42s-.08.19.12.29c.2.11.33-.1.33-.1l.55-1.13s.05-.07.1-.1c.06-.03.11-.03.11-.03h1.15s.12,0,.22-.09c.1-.09.11-.2.11-.2l.17-1.23s0-.26-.27-.27c-.2-.02-.27.19-.27.19"/>
        <rect class="cls-57" x="150.61" y="170.4" width="1.32" height="1.32" transform="translate(-76.65 157.07) rotate(-45)"/>
        <rect class="cls-57" x="48.16" y="139.95" width="3.11" height="9.46"/>
        <path class="cls-54" d="m47.88,147.15c1.01-1.01,2.65-1.01,3.66,0,1.01,1.01,1.01,2.66,0,3.67-1.01,1.01-2.66,1.01-3.67,0-1.01-1.01-1.01-2.65,0-3.66"/>
        <path class="cls-57" d="m47.52,146.78c1.21-1.21,3.18-1.21,4.39,0,1.21,1.21,1.21,3.18,0,4.4-1.21,1.21-3.18,1.21-4.4,0-1.21-1.21-1.21-3.18,0-4.39m3.66.73c-.81-.81-2.12-.81-2.93,0-.81.81-.81,2.12,0,2.93s2.12.81,2.93,0c.81-.81.81-2.12,0-2.93"/>
        <path class="cls-54" d="m47.88,140.66c1.01-1.01,2.65-1.01,3.66,0,1.01,1.01,1.01,2.66,0,3.67-1.01,1.01-2.66,1.01-3.67,0-1.01-1.01-1.01-2.65,0-3.66"/>
        <path class="cls-57" d="m47.52,140.3c1.21-1.21,3.18-1.21,4.39,0,1.21,1.21,1.21,3.18,0,4.4-1.21,1.21-3.18,1.21-4.4,0-1.21-1.21-1.21-3.18,0-4.39m3.66.73c-.81-.81-2.12-.81-2.93,0-.81.81-.81,2.12,0,2.93s2.12.81,2.93,0c.81-.81.81-2.12,0-2.93"/>
        <rect class="cls-54" x="49.2" y="141.13" width="1.03" height="8.46"/>
        <rect class="cls-57" x="135.43" y="141.39" width="3.21" height="8.43"/>
        <rect class="cls-54" x="136.5" y="141.2" width="1.06" height="8.73"/>
        <path class="cls-52" d="m136.98,139.3c1.71,0,3.1,1.39,3.1,3.1s-1.39,3.09-3.1,3.09-3.09-1.38-3.09-3.09,1.39-3.1,3.09-3.1"/>
        <path class="cls-54" d="m135.88,143.3c.14.49.6.84,1.13.84.65,0,1.18-.53,1.18-1.18,0-.35-.15-.65-.38-.87l.07-.51c.46.29.76.8.76,1.38,0,.9-.73,1.63-1.63,1.63-.58,0-1.1-.31-1.39-.77l.25-.52Z"/>
        <path class="cls-54" d="m136.97,140.35c0,.25.2.46.46.46s.46-.21.46-.46-.21-.46-.46-.46-.46.21-.46.46"/>
        <path class="cls-54" d="m137.22,141.16l-.05.32h-.99s-.2.02-.2.22.2.22.2.22h.93l-.05.3h-1.25s-.08,0-.13.05c-.03.03-.08.13-.08.13l-.69,1.42s-.08.19.12.29c.2.11.32-.1.32-.1l.55-1.13s.05-.07.1-.1c.06-.03.11-.03.11-.03h1.14s.12,0,.22-.09c.09-.09.11-.2.11-.2l.17-1.24s0-.25-.27-.27c-.2-.01-.27.2-.27.2"/>
        <path class="cls-52" d="m137.07,145.96c1.72,0,3.11,1.39,3.11,3.11s-1.39,3.11-3.11,3.11-3.11-1.39-3.11-3.11,1.39-3.11,3.11-3.11"/>
        <path class="cls-54" d="m137.07,151.86c-1.54,0-2.79-1.25-2.79-2.79s1.25-2.79,2.79-2.79,2.79,1.25,2.79,2.79-1.25,2.79-2.79,2.79"/>
        <path class="cls-52" d="m136.02,149.98c.15.49.6.84,1.14.84.65,0,1.18-.53,1.18-1.18,0-.35-.15-.65-.38-.87l.07-.51c.46.29.77.8.77,1.39,0,.91-.74,1.64-1.64,1.64-.59,0-1.1-.31-1.39-.77l.25-.52Z"/>
        <path class="cls-52" d="m137.12,147.02c0,.25.21.46.46.46s.46-.2.46-.46-.21-.46-.46-.46-.46.21-.46.46"/>
        <path class="cls-52" d="m137.37,147.83l-.05.32h-.99s-.21.02-.21.23.21.22.21.22h.93l-.05.31h-1.26s-.09,0-.13.05c-.03.03-.08.13-.08.13l-.7,1.43s-.08.18.12.29c.2.11.33-.1.33-.1l.55-1.13s.04-.07.1-.1c.06-.03.11-.03.11-.03h1.15s.12,0,.22-.1c.1-.09.11-.2.11-.2l.17-1.24s0-.26-.27-.27c-.2-.01-.27.19-.27.19"/>
        <rect class="cls-57" x="136.39" y="156.75" width="1.32" height="1.37"/>
        <rect class="cls-57" x="136.39" y="154.8" width="1.32" height="1.37"/>
        <rect class="cls-57" x="136.39" y="152.92" width="1.32" height="1.37"/>
        <path class="cls-54" d="m25.07,102.5c0,1.43-1.16,2.59-2.59,2.59s-2.59-1.16-2.59-2.59,1.16-2.59,2.59-2.59,2.59,1.16,2.59,2.59"/>
        <path class="cls-57" d="m25.58,102.5c0,1.72-1.39,3.11-3.11,3.11s-3.11-1.39-3.11-3.11,1.39-3.11,3.11-3.11,3.11,1.39,3.11,3.11m-3.11,2.07c1.14,0,2.07-.93,2.07-2.07s-.93-2.07-2.07-2.07-2.07.93-2.07,2.07.93,2.07,2.07,2.07"/>
        <rect class="cls-57" x="90.96" y="72.14" width="3.11" height="9.46" transform="translate(-27.26 87.91) rotate(-44.99)"/>
        <rect class="cls-54" x="92.01" y="71.96" width="1.03" height="9.84" transform="translate(-27.26 87.94) rotate(-45)"/>
        <path class="cls-52" d="m89.28,70.64c1.71,0,3.1,1.39,3.1,3.1s-1.39,3.09-3.1,3.09-3.09-1.39-3.09-3.09,1.39-3.1,3.09-3.1"/>
        <path class="cls-54" d="m88.23,74.64c.14.49.6.84,1.13.84.65,0,1.18-.53,1.18-1.18,0-.34-.15-.65-.38-.87l.07-.51c.46.29.76.8.76,1.38,0,.9-.73,1.63-1.63,1.63-.58,0-1.1-.31-1.39-.77l.25-.52Z"/>
        <path class="cls-54" d="m89.33,71.69c0,.25.2.46.46.46s.46-.2.46-.46-.21-.46-.46-.46-.46.21-.46.46"/>
        <path class="cls-54" d="m89.58,72.5l-.05.32h-.99s-.2.02-.2.22.2.22.2.22h.93l-.05.3h-1.25s-.08,0-.13.04c-.03.03-.08.13-.08.13l-.69,1.42s-.08.19.12.29c.2.11.32-.1.32-.1l.55-1.13s.05-.07.1-.1c.06-.03.11-.03.11-.03h1.14s.12,0,.22-.1c.09-.09.11-.2.11-.2l.17-1.23s0-.26-.27-.27c-.2-.02-.27.19-.27.19"/>
        <path class="cls-52" d="m95.33,76.71c1.72,0,3.11,1.39,3.11,3.11s-1.39,3.11-3.11,3.11-3.11-1.39-3.11-3.11,1.39-3.11,3.11-3.11"/>
        <path class="cls-54" d="m95.33,82.61c-1.54,0-2.79-1.25-2.79-2.79s1.25-2.79,2.79-2.79,2.79,1.25,2.79,2.79-1.25,2.79-2.79,2.79"/>
        <path class="cls-52" d="m94.28,80.73c.15.49.6.85,1.14.85.65,0,1.18-.53,1.18-1.18,0-.35-.15-.65-.38-.88l.07-.51c.46.29.77.8.77,1.39,0,.9-.74,1.64-1.64,1.64-.59,0-1.1-.31-1.39-.77l.25-.52Z"/>
        <path class="cls-52" d="m95.38,77.76c0,.26.21.46.46.46s.46-.2.46-.46-.21-.46-.46-.46-.46.21-.46.46"/>
        <path class="cls-52" d="m95.63,78.58l-.05.32h-.99s-.21.02-.21.22.21.22.21.22h.93l-.05.3h-1.26s-.09,0-.13.05c-.03.03-.08.13-.08.13l-.7,1.43s-.08.18.12.29c.2.11.33-.1.33-.1l.55-1.13s.04-.07.1-.1c.06-.03.11-.03.11-.03h1.15s.12,0,.22-.1c.1-.09.11-.2.11-.2l.17-1.24s0-.26-.27-.28c-.2-.01-.27.2-.27.2"/>
        <rect class="cls-57" x="86.97" y="31.31" width="17.23" height="3.11" transform="translate(4.76 77.22) rotate(-45)"/>
        <path class="cls-54" d="m91.88,39.16c0,1.43-1.17,2.59-2.59,2.59s-2.59-1.16-2.59-2.59,1.16-2.59,2.59-2.59,2.59,1.16,2.59,2.59"/>
        <path class="cls-57" d="m92.4,39.16c0,1.72-1.39,3.11-3.11,3.11s-3.11-1.39-3.11-3.11,1.39-3.11,3.11-3.11,3.11,1.39,3.11,3.11m-3.11,2.07c1.14,0,2.07-.93,2.07-2.07s-.93-2.07-2.07-2.07-2.07.93-2.07,2.07.93,2.07,2.07,2.07"/>
        <path class="cls-54" d="m102.15,30.16c-1.06,1.06-2.8,1.06-3.86,0-1.07-1.07-1.07-2.8,0-3.86,1.07-1.07,2.8-1.07,3.86,0,1.06,1.07,1.06,2.79,0,3.86"/>
        <path class="cls-57" d="m102.53,30.55c-1.28,1.28-3.35,1.28-4.63,0-1.28-1.28-1.28-3.35,0-4.63,1.28-1.28,3.35-1.28,4.63,0,1.28,1.28,1.28,3.35,0,4.63m-3.86-.77c.85.85,2.23.85,3.09,0,.85-.85.85-2.24,0-3.09-.85-.86-2.24-.86-3.09,0-.86.85-.85,2.23,0,3.09"/>
        <path class="cls-54" d="m60.04,19.85c0,1.43-1.16,2.59-2.59,2.59s-2.6-1.16-2.6-2.59,1.17-2.59,2.6-2.59,2.59,1.17,2.59,2.59"/>
        <path class="cls-57" d="m60.56,19.85c0,1.72-1.39,3.11-3.1,3.11s-3.11-1.39-3.11-3.11,1.39-3.11,3.11-3.11,3.1,1.39,3.1,3.11m-3.1,2.07c1.14,0,2.07-.93,2.07-2.07s-.93-2.07-2.07-2.07-2.08.93-2.08,2.07.93,2.07,2.08,2.07"/>
        <rect class="cls-57" x="168.69" y="9.72" width="9.46" height="3.11"/>
        <rect class="cls-54" x="168.5" y="10.76" width="9.84" height="1.03"/>
        <rect class="cls-54" x="167.41" y="10.76" width="9.84" height="1.03"/>
        <rect class="cls-57" x="160.49" y="12.13" width="9.46" height="3.11" transform="translate(38.72 120.84) rotate(-45)"/>
        <path class="cls-54" d="m153.2,28.19c0,1.43-1.16,2.59-2.59,2.59s-2.59-1.16-2.59-2.59,1.16-2.59,2.59-2.59,2.59,1.16,2.59,2.59"/>
        <path class="cls-57" d="m153.71,28.19c0,1.72-1.39,3.11-3.11,3.11s-3.11-1.39-3.11-3.11,1.39-3.11,3.11-3.11,3.11,1.39,3.11,3.11m-3.11,2.07c1.14,0,2.07-.93,2.07-2.07s-.93-2.07-2.07-2.07-2.07.93-2.07,2.07.93,2.07,2.07,2.07"/>
        <path class="cls-54" d="m163.01,37.92c0,1.43-1.16,2.59-2.59,2.59s-2.59-1.16-2.59-2.59,1.16-2.59,2.59-2.59,2.59,1.16,2.59,2.59"/>
        <path class="cls-57" d="m163.52,37.92c0,1.72-1.39,3.11-3.11,3.11s-3.11-1.39-3.11-3.11,1.39-3.11,3.11-3.11,3.11,1.39,3.11,3.11m-3.11,2.07c1.14,0,2.07-.93,2.07-2.07s-.93-2.07-2.07-2.07-2.07.93-2.07,2.07.93,2.07,2.07,2.07"/>
        <path class="cls-54" d="m170.31,11.33c0,1.43-1.16,2.59-2.59,2.59s-2.59-1.16-2.59-2.59,1.16-2.59,2.59-2.59,2.59,1.16,2.59,2.59"/>
        <path class="cls-57" d="m170.83,11.33c0,1.72-1.39,3.11-3.11,3.11s-3.11-1.39-3.11-3.11,1.39-3.11,3.11-3.11,3.11,1.39,3.11,3.11m-3.11,2.07c1.14,0,2.07-.93,2.07-2.07s-.93-2.07-2.07-2.07-2.07.93-2.07,2.07.93,2.07,2.07,2.07"/>
        <path class="cls-54" d="m178.57,11.43c0,1.43-1.16,2.59-2.59,2.59s-2.59-1.16-2.59-2.59,1.16-2.59,2.59-2.59,2.59,1.16,2.59,2.59"/>
        <path class="cls-57" d="m179.08,11.43c0,1.72-1.39,3.11-3.11,3.11s-3.11-1.39-3.11-3.11,1.39-3.11,3.11-3.11,3.11,1.39,3.11,3.11m-3.11,2.07c1.14,0,2.07-.93,2.07-2.07s-.93-2.07-2.07-2.07-2.07.93-2.07,2.07.93,2.07,2.07,2.07"/>
        <path class="cls-54" d="m180.03,21.09c0,1.43-1.16,2.59-2.59,2.59s-2.59-1.16-2.59-2.59,1.16-2.59,2.59-2.59,2.59,1.16,2.59,2.59"/>
        <path class="cls-57" d="m180.54,21.09c0,1.72-1.39,3.11-3.11,3.11s-3.11-1.39-3.11-3.11,1.39-3.11,3.11-3.11,3.11,1.39,3.11,3.11m-3.11,2.07c1.14,0,2.07-.93,2.07-2.07s-.93-2.07-2.07-2.07-2.07.93-2.07,2.07.93,2.07,2.07,2.07"/>
        <rect class="cls-54" x="161.1" y="12.95" width="8.7" height="1.03" transform="translate(39.02 121.02) rotate(-45.04)"/>
        <path class="cls-52" d="m160.63,15.02c1.72,0,3.11,1.39,3.11,3.11s-1.39,3.11-3.11,3.11-3.11-1.39-3.11-3.11,1.39-3.11,3.11-3.11"/>
        <path class="cls-54" d="m160.63,20.92c-1.54,0-2.79-1.25-2.79-2.79s1.25-2.79,2.79-2.79,2.79,1.25,2.79,2.79-1.25,2.79-2.79,2.79"/>
        <path class="cls-52" d="m159.57,19.04c.15.49.6.85,1.14.85.65,0,1.18-.53,1.18-1.18,0-.34-.15-.65-.38-.88l.07-.51c.46.29.76.8.76,1.39,0,.9-.74,1.64-1.64,1.64-.59,0-1.1-.31-1.39-.77l.25-.52Z"/>
        <path class="cls-52" d="m160.68,16.07c0,.26.2.46.46.46s.46-.21.46-.46-.21-.46-.46-.46-.46.21-.46.46"/>
        <path class="cls-52" d="m160.92,16.88l-.05.32h-.99s-.21.02-.21.22.21.22.21.22h.93l-.04.3h-1.26s-.09,0-.13.05c-.03.03-.08.13-.08.13l-.7,1.43s-.08.18.12.29c.2.11.33-.1.33-.1l.55-1.13s.04-.07.1-.1c.06-.03.11-.03.11-.03h1.15s.12,0,.22-.1c.09-.09.11-.2.11-.2l.17-1.24s0-.26-.27-.28c-.2-.02-.27.2-.27.2"/>
        <rect class="cls-57" x="154.32" y="23.19" width="1.32" height="1.32" transform="translate(28.53 116.58) rotate(-45)"/>
        <rect class="cls-57" x="153.03" y="24.48" width="1.32" height="1.32" transform="translate(27.24 116.04) rotate(-45)"/>
        <rect class="cls-57" x="155.66" y="21.86" width="1.32" height="1.32" transform="translate(29.86 117.13) rotate(-45)"/>
        <rect class="cls-57" x="156.94" y="20.57" width="1.32" height="1.32" transform="translate(31.15 117.66) rotate(-45)"/>
        <polyline class="cls-54" points="168.11 11.79 168.11 10.76 174.62 10.76 174.63 11.79 168.47 11.79"/>
        <rect class="cls-57" x="170.95" y="11.67" width="3.11" height="9.23" transform="translate(39.01 126.75) rotate(-45)"/>
        <rect class="cls-54" x="172.06" y="11.44" width="1.03" height="9.84" transform="translate(39.06 126.91) rotate(-45.04)"/>
        <rect class="cls-54" x="171.29" y="10.67" width="1.03" height="9.84" transform="translate(39.29 126.05) rotate(-45)"/>
        <polyline class="cls-54" points="168.46 12.97 169.19 12.25 173.79 16.85 173.07 17.58 168.72 13.23"/>
        <path class="cls-54" d="m121.17,79.84c0,1.43-1.16,2.59-2.59,2.59s-2.6-1.16-2.6-2.59,1.17-2.59,2.6-2.59,2.59,1.16,2.59,2.59"/>
        <path class="cls-57" d="m121.69,79.85c0,1.71-1.39,3.1-3.1,3.1s-3.11-1.39-3.11-3.1,1.39-3.11,3.11-3.11,3.1,1.39,3.1,3.11m-3.1,2.07c1.14,0,2.07-.93,2.07-2.07s-.93-2.07-2.07-2.07-2.08.93-2.08,2.07.93,2.07,2.08,2.07"/>
        <path class="cls-52" d="m101.16,103.47c1.71,0,3.1,1.39,3.1,3.1s-1.39,3.09-3.1,3.09-3.09-1.38-3.09-3.09,1.38-3.1,3.09-3.1"/>
        <path class="cls-54" d="m100.12,107.47c.15.48.6.84,1.13.84.65,0,1.18-.53,1.18-1.18,0-.34-.15-.65-.38-.87l.07-.51c.46.29.76.8.76,1.38,0,.9-.73,1.63-1.63,1.63-.58,0-1.1-.31-1.39-.77l.25-.52Z"/>
        <path class="cls-54" d="m101.22,104.51c0,.25.2.46.46.46s.46-.21.46-.46-.21-.46-.46-.46-.46.2-.46.46"/>
        <path class="cls-54" d="m101.46,105.32l-.05.32h-.99s-.2.02-.2.22.2.22.2.22h.93l-.04.3h-1.25s-.08,0-.13.05c-.03.03-.08.13-.08.13l-.7,1.42s-.08.19.12.29c.2.11.33-.09.33-.09l.55-1.13s.05-.07.1-.1c.06-.03.11-.03.11-.03h1.15s.12,0,.22-.09c.09-.09.11-.2.11-.2l.17-1.24s0-.25-.27-.27c-.2-.01-.27.2-.27.2"/>
        <path class="cls-54" d="m163.16,106.49c0,1.43-1.16,2.59-2.59,2.59s-2.6-1.16-2.6-2.59,1.17-2.59,2.6-2.59,2.59,1.16,2.59,2.59"/>
        <path class="cls-57" d="m163.67,106.49c0,1.71-1.39,3.11-3.1,3.11s-3.11-1.39-3.11-3.11,1.39-3.11,3.11-3.11,3.1,1.39,3.1,3.11m-3.1,2.07c1.14,0,2.07-.93,2.07-2.07s-.93-2.08-2.07-2.08-2.08.93-2.08,2.08.93,2.07,2.08,2.07"/>
        <path class="cls-54" d="m163.17,128.45c0,1.43-1.16,2.59-2.59,2.59s-2.59-1.16-2.59-2.59,1.16-2.59,2.59-2.59,2.59,1.16,2.59,2.59"/>
        <path class="cls-57" d="m163.69,128.45c0,1.71-1.39,3.11-3.11,3.11s-3.11-1.39-3.11-3.11,1.39-3.11,3.11-3.11,3.11,1.39,3.11,3.11m-3.11,2.07c1.14,0,2.07-.93,2.07-2.07s-.93-2.08-2.07-2.08-2.07.93-2.07,2.08.93,2.07,2.07,2.07"/>
        <path class="cls-54" d="m141.28,106.56c0,1.43-1.16,2.59-2.59,2.59s-2.6-1.16-2.6-2.59,1.17-2.59,2.6-2.59,2.59,1.16,2.59,2.59"/>
        <path class="cls-57" d="m141.79,106.56c0,1.72-1.39,3.11-3.1,3.11s-3.11-1.39-3.11-3.11,1.39-3.11,3.11-3.11,3.1,1.39,3.1,3.11m-3.1,2.07c1.14,0,2.07-.93,2.07-2.07s-.93-2.07-2.07-2.07-2.08.93-2.08,2.07.93,2.07,2.08,2.07"/>
        <rect class="cls-57" x="152.59" y="75.45" width="9.46" height="3.11" transform="translate(-8.36 133.84) rotate(-45.01)"/>
        <rect class="cls-54" x="152.4" y="76.5" width="9.84" height="1.03" transform="translate(-8.34 133.92) rotate(-45.04)"/>
        <path class="cls-52" d="m160.57,70.67c1.71,0,3.09,1.39,3.09,3.1s-1.38,3.09-3.09,3.09-3.1-1.39-3.1-3.09,1.39-3.1,3.1-3.1"/>
        <path class="cls-54" d="m159.52,74.67c.14.49.6.84,1.13.84.65,0,1.18-.53,1.18-1.18,0-.34-.15-.65-.38-.87l.07-.51c.46.29.76.8.76,1.38,0,.9-.73,1.63-1.63,1.63-.58,0-1.1-.31-1.39-.77l.25-.52Z"/>
        <path class="cls-54" d="m160.61,71.72c0,.25.2.46.46.46s.46-.2.46-.46-.21-.46-.46-.46-.46.21-.46.46"/>
        <path class="cls-54" d="m160.86,72.53l-.05.32h-.99s-.2.02-.2.22.2.22.2.22h.93l-.05.3h-1.25s-.08,0-.13.04c-.03.03-.08.13-.08.13l-.69,1.42s-.08.19.12.29c.2.11.32-.1.32-.1l.55-1.13s.05-.07.1-.1c.06-.03.11-.03.11-.03h1.14s.12,0,.22-.1c.09-.09.11-.2.11-.2l.17-1.23s0-.26-.27-.27c-.2-.01-.27.19-.27.19"/>
        <path class="cls-52" d="m154.46,76.77c1.72,0,3.11,1.39,3.11,3.11s-1.39,3.11-3.11,3.11-3.11-1.39-3.11-3.11,1.39-3.11,3.11-3.11"/>
        <path class="cls-54" d="m154.46,82.67c-1.54,0-2.79-1.25-2.79-2.79s1.25-2.79,2.79-2.79,2.79,1.25,2.79,2.79-1.25,2.79-2.79,2.79"/>
        <path class="cls-52" d="m153.41,80.79c.14.49.6.84,1.14.84.65,0,1.18-.53,1.18-1.18,0-.34-.15-.65-.38-.87l.07-.51c.46.29.77.8.77,1.39,0,.9-.74,1.64-1.64,1.64-.59,0-1.1-.31-1.39-.77l.26-.52Z"/>
        <path class="cls-52" d="m154.51,77.82c0,.25.21.46.46.46s.46-.2.46-.46-.21-.46-.46-.46-.46.21-.46.46"/>
        <path class="cls-52" d="m154.76,78.63l-.05.32h-.99s-.21.02-.21.23.21.22.21.22h.93l-.05.3h-1.26s-.09,0-.13.05c-.03.03-.08.13-.08.13l-.7,1.43s-.08.18.12.29c.2.11.33-.1.33-.1l.55-1.13s.04-.07.1-.1c.06-.03.11-.03.11-.03h1.15s.12,0,.22-.1c.1-.09.11-.2.11-.2l.17-1.24s0-.26-.27-.27c-.2-.02-.27.19-.27.19"/>
        <path class="cls-54" d="m161.5,145.22l2.81,2.8c-.36.93-.17,2.03.58,2.78,1.01,1.01,2.66,1.01,3.67,0,1.01-1.01,1.01-2.66,0-3.67-.75-.75-1.85-.94-2.78-.58l-2.81-2.81c.36-.93.17-2.03-.58-2.78-1.01-1.01-2.65-1.01-3.67,0-1.01,1.01-1.01,2.65,0,3.67.75.75,1.85.94,2.78.58"/>
        <path class="cls-57" d="m159.09,144.27c-.81-.81-.81-2.12,0-2.93.81-.81,2.12-.81,2.93,0,.68.68.79,1.72.32,2.52l3.33,3.33c.8-.47,1.83-.37,2.52.32.81.81.81,2.12,0,2.93-.81.81-2.12.81-2.93,0-.68-.68-.79-1.72-.32-2.52l-3.33-3.33c-.8.47-1.83.36-2.52-.32m2.27,1.53l2.36,2.36c-.28,1.03-.01,2.19.8,3,1.21,1.21,3.18,1.21,4.39,0,1.22-1.22,1.22-3.18,0-4.4-.81-.81-1.96-1.08-3-.8l-2.36-2.36c.28-1.04.01-2.19-.8-3-1.21-1.21-3.18-1.21-4.4,0-1.21,1.21-1.21,3.18,0,4.4.82.82,1.97,1.08,3,.8"/>
        <rect class="cls-57" x="172.02" y="154.18" width="1.32" height="1.32" transform="translate(-58.91 167.46) rotate(-45)"/>
        <rect class="cls-57" x="170.65" y="152.81" width="1.32" height="1.32" transform="translate(-58.34 166.09) rotate(-45)"/>
        <rect class="cls-57" x="169.32" y="151.48" width="1.32" height="1.32" transform="translate(-57.79 164.76) rotate(-45)"/>
        <rect class="cls-57" x="176" y="158.16" width="1.32" height="1.32" transform="translate(-60.56 171.44) rotate(-45)"/>
        <rect class="cls-57" x="174.63" y="156.79" width="1.32" height="1.32" transform="translate(-59.99 170.07) rotate(-45)"/>
        <rect class="cls-57" x="173.31" y="155.47" width="1.32" height="1.32" transform="translate(-59.45 168.75) rotate(-45)"/>
        <rect class="cls-57" x="105.8" y="232.35" width="1.32" height="1.32"/>
        <rect class="cls-57" x="105.8" y="234.24" width="1.32" height="1.32"/>
        <rect class="cls-57" x="105.8" y="236.05" width="1.32" height="1.32"/>
        <rect class="cls-57" x="105.8" y="226.25" width="1.32" height="1.32"/>
        <rect class="cls-57" x="105.8" y="230.59" width="1.32" height="1.32"/>
        <rect class="cls-57" x="212.62" y="139.91" width="1.32" height="1.37"/>
        <rect class="cls-57" x="216.57" y="135.53" width="3.11" height="10.85" transform="translate(-35.79 195.52) rotate(-45)"/>
        <rect class="cls-54" x="217.73" y="135.62" width=".97" height="10.9" transform="translate(-35.84 195.61) rotate(-45)"/>
        <path class="cls-52" d="m213.28,133.04c1.71,0,3.1,1.39,3.1,3.1s-1.39,3.09-3.1,3.09-3.09-1.38-3.09-3.09,1.39-3.1,3.09-3.1"/>
        <path class="cls-54" d="m212.23,137.04c.14.49.6.84,1.13.84.65,0,1.18-.53,1.18-1.18,0-.35-.15-.65-.38-.87l.07-.51c.46.29.76.8.76,1.38,0,.9-.73,1.63-1.63,1.63-.59,0-1.1-.31-1.39-.77l.25-.52Z"/>
        <path class="cls-54" d="m213.33,134.09c0,.25.2.46.46.46s.46-.21.46-.46-.21-.46-.46-.46-.46.21-.46.46"/>
        <path class="cls-54" d="m213.58,134.89l-.05.32h-.99s-.21.02-.21.22.21.22.21.22h.93l-.05.3h-1.25s-.09,0-.13.05c-.03.03-.08.13-.08.13l-.7,1.42s-.08.19.12.29c.2.11.33-.1.33-.1l.55-1.13s.05-.07.1-.1c.06-.03.11-.03.11-.03h1.15s.12,0,.22-.1c.1-.09.11-.2.11-.2l.17-1.23s0-.26-.27-.27c-.2-.02-.27.19-.27.19"/>
        <path class="cls-52" d="m221.8,141.68c1.71,0,3.1,1.39,3.1,3.1s-1.39,3.09-3.1,3.09-3.09-1.38-3.09-3.09,1.39-3.1,3.09-3.1"/>
        <path class="cls-54" d="m220.75,145.68c.14.49.6.84,1.13.84.65,0,1.18-.53,1.18-1.18,0-.35-.15-.65-.38-.87l.07-.51c.46.29.76.8.76,1.38,0,.9-.73,1.63-1.63,1.63-.59,0-1.1-.31-1.38-.77l.25-.52Z"/>
        <path class="cls-54" d="m221.85,142.73c0,.25.2.46.46.46s.46-.21.46-.46-.21-.46-.46-.46-.46.21-.46.46"/>
        <path class="cls-54" d="m222.1,143.54l-.05.32h-.99s-.21.02-.21.22.21.22.21.22h.93l-.05.3h-1.25s-.09,0-.13.05c-.03.03-.08.13-.08.13l-.7,1.42s-.08.19.12.29c.2.11.33-.1.33-.1l.55-1.13s.05-.07.1-.1c.06-.03.11-.03.11-.03h1.15s.12,0,.22-.1c.1-.09.11-.2.11-.2l.17-1.23s0-.26-.27-.27c-.2-.02-.27.19-.27.19"/>
        <path class="cls-54" d="m186.62,224.42c0,1.43-1.16,2.59-2.59,2.59s-2.59-1.16-2.59-2.59,1.16-2.59,2.59-2.59,2.59,1.16,2.59,2.59"/>
        <path class="cls-57" d="m187.13,224.42c0,1.71-1.39,3.11-3.11,3.11s-3.11-1.39-3.11-3.11,1.39-3.11,3.11-3.11,3.11,1.39,3.11,3.11m-3.11,2.07c1.14,0,2.07-.93,2.07-2.07s-.93-2.07-2.07-2.07-2.07.93-2.07,2.07.93,2.07,2.07,2.07"/>
        <path class="cls-54" d="m194.41,232.21c0,1.43-1.16,2.59-2.59,2.59s-2.59-1.16-2.59-2.59,1.16-2.59,2.59-2.59,2.59,1.16,2.59,2.59"/>
        <path class="cls-57" d="m194.92,232.21c0,1.71-1.39,3.11-3.11,3.11s-3.11-1.39-3.11-3.11,1.39-3.11,3.11-3.11,3.11,1.39,3.11,3.11m-3.11,2.07c1.14,0,2.07-.93,2.07-2.07s-.93-2.07-2.07-2.07-2.07.93-2.07,2.07.93,2.07,2.07,2.07"/>
        <path class="cls-54" d="m237.89,114.28c0,1.43-1.16,2.59-2.59,2.59s-2.6-1.16-2.6-2.59,1.16-2.59,2.6-2.59,2.59,1.16,2.59,2.59"/>
        <path class="cls-57" d="m238.41,114.28c0,1.71-1.39,3.11-3.1,3.11s-3.11-1.39-3.11-3.11,1.39-3.11,3.11-3.11,3.1,1.39,3.1,3.11m-3.1,2.07c1.14,0,2.07-.93,2.07-2.07s-.93-2.08-2.07-2.08-2.08.93-2.08,2.08.93,2.07,2.08,2.07"/>
        <path class="cls-54" d="m222.58,93.7c0,1.43-1.16,2.59-2.59,2.59s-2.6-1.16-2.6-2.59,1.16-2.59,2.6-2.59,2.59,1.16,2.59,2.59"/>
        <path class="cls-57" d="m223.09,93.7c0,1.71-1.39,3.11-3.1,3.11s-3.11-1.39-3.11-3.11,1.39-3.11,3.11-3.11,3.1,1.39,3.1,3.11m-3.1,2.07c1.14,0,2.07-.93,2.07-2.07s-.93-2.08-2.07-2.08-2.08.93-2.08,2.08.93,2.07,2.08,2.07"/>
        <path class="cls-52" d="m211.27,82.12c1.71,0,3.1,1.39,3.1,3.1s-1.39,3.09-3.1,3.09-3.09-1.38-3.09-3.09,1.39-3.1,3.09-3.1"/>
        <path class="cls-54" d="m210.22,86.12c.14.49.6.84,1.13.84.65,0,1.18-.53,1.18-1.18,0-.35-.15-.65-.38-.87l.07-.51c.46.29.76.8.76,1.38,0,.9-.73,1.63-1.63,1.63-.59,0-1.1-.31-1.39-.77l.25-.52Z"/>
        <path class="cls-54" d="m211.32,83.17c0,.25.2.46.46.46s.46-.21.46-.46-.21-.46-.46-.46-.46.21-.46.46"/>
        <path class="cls-54" d="m211.57,83.98l-.05.32h-.99s-.21.02-.21.22.21.22.21.22h.93l-.05.3h-1.25s-.09,0-.13.05c-.03.03-.08.13-.08.13l-.7,1.42s-.08.19.12.29c.2.11.33-.1.33-.1l.55-1.13s.05-.07.1-.1c.06-.03.11-.03.11-.03h1.15s.12,0,.22-.1c.1-.09.11-.2.11-.2l.17-1.23s0-.26-.27-.27c-.2-.02-.27.19-.27.19"/>
        <rect class="cls-57" x="216.27" y="90.11" width="1.32" height="1.32" transform="translate(-.64 179.99) rotate(-45)"/>
        <rect class="cls-57" x="214.94" y="88.78" width="1.32" height="1.32" transform="translate(-.09 178.66) rotate(-45)"/>
        <rect class="cls-57" x="213.66" y="87.49" width="1.32" height="1.32" transform="translate(.44 177.37) rotate(-45)"/>
        <path class="cls-54" d="m192.87,85.01c0,1.43-1.16,2.59-2.59,2.59s-2.6-1.16-2.6-2.59,1.17-2.59,2.6-2.59,2.59,1.16,2.59,2.59"/>
        <path class="cls-57" d="m193.38,85.01c0,1.71-1.39,3.11-3.1,3.11s-3.11-1.39-3.11-3.11,1.39-3.11,3.11-3.11,3.1,1.39,3.1,3.11m-3.1,2.07c1.14,0,2.07-.93,2.07-2.07s-.93-2.07-2.07-2.07-2.07.93-2.07,2.07.93,2.07,2.07,2.07"/>
        <line class="cls-20" x1="211.76" y1="12.54" x2="211.76" y2="10.98"/>
        <rect class="cls-57" x="193.59" y="23.21" width="11.69" height="3.12" transform="translate(40.98 148.39) rotate(-45.04)"/>
        <polygon class="cls-54" points="195.53 29.41 194.8 28.68 203.33 20.15 204.06 20.88 195.53 29.41"/>
        <rect class="cls-57" x="201.63" y="15.17" width="11.69" height="3.12" transform="translate(49.03 151.72) rotate(-45.04)"/>
        <polygon class="cls-54" points="203.57 21.37 202.84 20.64 211.37 12.11 212.1 12.83 203.57 21.37"/>
        <path class="cls-52" d="m203.35,17.81c1.71,0,3.1,1.39,3.1,3.1s-1.39,3.09-3.1,3.09-3.09-1.39-3.09-3.09,1.38-3.1,3.09-3.1"/>
        <path class="cls-54" d="m202.31,21.81c.15.49.6.84,1.13.84.65,0,1.18-.53,1.18-1.18,0-.34-.15-.65-.38-.87l.07-.51c.46.29.76.8.76,1.38,0,.9-.73,1.63-1.63,1.63-.58,0-1.1-.31-1.39-.77l.25-.52Z"/>
        <path class="cls-54" d="m203.41,18.86c0,.25.2.46.46.46s.46-.21.46-.46-.21-.46-.46-.46-.46.21-.46.46"/>
        <path class="cls-54" d="m203.65,19.67l-.05.32h-.98s-.21.02-.21.22.2.22.2.22h.93l-.04.31h-1.25s-.09,0-.13.04c-.03.03-.08.13-.08.13l-.7,1.42s-.08.19.12.29c.2.11.33-.1.33-.1l.55-1.13s.05-.07.1-.1c.06-.03.11-.03.11-.03h1.15s.12,0,.22-.09c.09-.09.11-.2.11-.2l.17-1.24s0-.25-.27-.27c-.2-.02-.27.2-.27.2"/>
        <path class="cls-52" d="m195.73,24.97c1.8,0,3.27,1.46,3.27,3.27s-1.46,3.27-3.27,3.27-3.27-1.46-3.27-3.27,1.46-3.27,3.27-3.27"/>
        <path class="cls-54" d="m194.63,29.19c.15.51.63.89,1.19.89.69,0,1.24-.56,1.24-1.24,0-.37-.16-.69-.4-.92l.07-.54c.48.3.8.84.8,1.46,0,.95-.77,1.72-1.72,1.72-.62,0-1.16-.33-1.46-.82l.27-.55Z"/>
        <path class="cls-54" d="m195.79,26.08c0,.27.22.48.48.48s.49-.22.49-.48-.22-.48-.49-.48-.48.22-.48.48"/>
        <path class="cls-54" d="m196.05,26.93l-.05.34h-1.04s-.22.02-.22.24.22.23.22.23h.98l-.05.32h-1.32s-.09,0-.14.05c-.04.03-.08.14-.08.14l-.73,1.5s-.09.2.13.31c.21.11.34-.1.34-.1l.58-1.19s.05-.08.1-.1c.07-.03.12-.03.12-.03h1.21s.12,0,.23-.1c.1-.1.12-.21.12-.21l.18-1.3s0-.27-.29-.29c-.21-.01-.28.21-.28.21"/>
        <path class="cls-52" d="m211.36,9.55c1.72,0,3.11,1.39,3.11,3.11s-1.39,3.11-3.11,3.11-3.11-1.39-3.11-3.11,1.39-3.11,3.11-3.11"/>
        <path class="cls-54" d="m211.36,15.44c-1.54,0-2.79-1.25-2.79-2.79s1.25-2.79,2.79-2.79,2.79,1.25,2.79,2.79-1.25,2.79-2.79,2.79"/>
        <path class="cls-52" d="m210.31,13.56c.15.49.6.85,1.14.85.66,0,1.18-.53,1.18-1.18,0-.34-.15-.65-.38-.88l.07-.51c.46.29.76.8.76,1.39,0,.9-.73,1.64-1.64,1.64-.59,0-1.1-.31-1.39-.77l.25-.52Z"/>
        <path class="cls-52" d="m211.42,10.59c0,.26.2.46.46.46s.46-.21.46-.46-.21-.46-.46-.46-.46.21-.46.46"/>
        <path class="cls-52" d="m211.66,11.41l-.05.32h-.99s-.21.02-.21.22.21.22.21.22h.93l-.04.3h-1.26s-.09,0-.13.05c-.03.03-.08.13-.08.13l-.7,1.43s-.08.18.12.29c.2.11.33-.1.33-.1l.55-1.13s.05-.07.1-.1c.06-.03.11-.03.11-.03h1.15s.12,0,.22-.1c.09-.09.11-.2.11-.2l.17-1.24s0-.26-.27-.28c-.2-.02-.27.2-.27.2"/>
        <rect class="cls-57" x="211.49" y="46.88" width="9.46" height="3.11" transform="translate(29.08 167.08) rotate(-45)"/>
        <rect class="cls-54" x="211.25" y="47.97" width="9.84" height="1.03" transform="translate(29.12 167.2) rotate(-45.04)"/>
        <path class="cls-52" d="m211.3,50.24c1.71,0,3.09,1.39,3.09,3.1s-1.39,3.09-3.09,3.09-3.09-1.39-3.09-3.09,1.38-3.1,3.09-3.1"/>
        <path class="cls-54" d="m210.26,54.24c.14.48.6.84,1.13.84.65,0,1.18-.53,1.18-1.18,0-.34-.15-.65-.38-.87l.07-.51c.46.29.76.8.76,1.38,0,.9-.73,1.63-1.63,1.63-.58,0-1.1-.31-1.39-.77l.25-.52Z"/>
        <path class="cls-54" d="m211.35,51.28c0,.25.2.46.46.46s.46-.21.46-.46-.21-.46-.46-.46-.46.2-.46.46"/>
        <path class="cls-54" d="m211.6,52.09l-.05.32h-.99s-.2.02-.2.22.2.22.2.22h.93l-.05.3h-1.25s-.09,0-.13.05c-.03.03-.08.13-.08.13l-.69,1.42s-.08.19.12.29c.2.11.33-.1.33-.1l.55-1.13s.05-.07.1-.1c.06-.03.11-.03.11-.03h1.15s.12,0,.22-.09c.09-.09.11-.2.11-.2l.17-1.24s0-.25-.27-.27c-.2-.01-.27.2-.27.2"/>
        <path class="cls-52" d="m219.41,41.8c1.83,0,3.3,1.48,3.3,3.31s-1.48,3.3-3.3,3.3-3.31-1.48-3.31-3.3,1.48-3.31,3.31-3.31"/>
        <path class="cls-54" d="m219.41,48.07c-1.64,0-2.96-1.33-2.96-2.97s1.33-2.97,2.96-2.97,2.96,1.33,2.96,2.97-1.33,2.97-2.96,2.97"/>
        <path class="cls-52" d="m218.29,46.07c.16.52.64.9,1.21.9.7,0,1.26-.56,1.26-1.26,0-.36-.16-.69-.41-.93l.07-.55c.49.31.81.85.81,1.47,0,.96-.78,1.74-1.74,1.74-.62,0-1.17-.33-1.48-.82l.27-.56Z"/>
        <path class="cls-52" d="m219.46,42.91c0,.27.22.49.49.49s.49-.22.49-.49-.22-.49-.49-.49-.49.22-.49.49"/>
        <path class="cls-52" d="m219.72,43.77l-.05.35h-1.05s-.22.02-.22.24.22.23.22.23h.99l-.05.33h-1.34s-.09,0-.15.05c-.03.03-.08.14-.08.14l-.74,1.52s-.09.2.13.31c.22.11.35-.1.35-.1l.59-1.2s.05-.08.1-.1c.07-.03.12-.03.12-.03h1.22s.12,0,.23-.1c.1-.1.12-.21.12-.21l.18-1.32s0-.27-.29-.29c-.22-.01-.29.21-.29.21"/>
        <path class="cls-54" d="m236.4,64.69c1.5,0,2.71-1.22,2.71-2.72s-1.22-2.72-2.71-2.72-2.72,1.22-2.72,2.72c0,1.5,1.22,2.72,2.72,2.72"/>
        <path class="cls-57" d="m233.14,61.97c0-1.8,1.46-3.26,3.26-3.26s3.26,1.46,3.26,3.26-1.46,3.26-3.26,3.26-3.26-1.46-3.26-3.26m3.26-2.17c-1.2,0-2.18.97-2.18,2.17s.97,2.17,2.18,2.17,2.17-.97,2.17-2.17-.97-2.17-2.17-2.17"/>
        <path class="cls-52" d="m301.61,101.59c1.72,0,3.11,1.39,3.11,3.11s-1.39,3.11-3.11,3.11-3.11-1.39-3.11-3.11,1.39-3.11,3.11-3.11"/>
        <path class="cls-54" d="m301.61,107.49c-1.54,0-2.79-1.25-2.79-2.79s1.25-2.79,2.79-2.79,2.79,1.25,2.79,2.79-1.25,2.79-2.79,2.79"/>
        <path class="cls-52" d="m300.55,105.61c.14.49.6.85,1.14.85.66,0,1.18-.53,1.18-1.19,0-.35-.15-.65-.38-.87l.07-.51c.46.29.76.8.76,1.39,0,.91-.73,1.64-1.64,1.64-.59,0-1.1-.31-1.39-.77l.26-.52Z"/>
        <path class="cls-52" d="m301.66,102.64c0,.25.2.46.46.46s.46-.2.46-.46-.21-.46-.46-.46-.46.21-.46.46"/>
        <path class="cls-52" d="m301.91,103.45l-.05.33h-.99s-.21.02-.21.22.21.22.21.22h.93l-.05.31h-1.26s-.09,0-.13.05c-.03.03-.08.13-.08.13l-.7,1.43s-.08.19.12.29c.2.11.33-.1.33-.1l.56-1.13s.04-.08.1-.1c.06-.03.11-.03.11-.03h1.15s.12,0,.22-.1c.09-.09.11-.2.11-.2l.17-1.24s0-.26-.28-.28c-.2-.01-.27.19-.27.19"/>
        <path class="cls-54" d="m310.79,111.65c0,.25.2.46.46.46"/>
        <rect class="cls-57" x="93.79" y="143.98" width="8.43" height="3.21" transform="translate(-74.24 111.94) rotate(-45)"/>
        <rect class="cls-54" x="93.67" y="145.04" width="8.73" height="1.06" transform="translate(-74.22 111.95) rotate(-45)"/>
        <path class="cls-52" d="m94.79,145.96c1.72,0,3.11,1.39,3.11,3.11s-1.39,3.11-3.11,3.11-3.11-1.39-3.11-3.11,1.39-3.11,3.11-3.11"/>
        <path class="cls-54" d="m94.79,151.86c-1.54,0-2.79-1.25-2.79-2.79s1.25-2.79,2.79-2.79,2.79,1.25,2.79,2.79-1.25,2.79-2.79,2.79"/>
        <path class="cls-52" d="m93.74,149.98c.15.49.6.84,1.14.84.65,0,1.18-.53,1.18-1.18,0-.34-.15-.65-.38-.87l.07-.51c.46.29.77.8.77,1.39,0,.91-.74,1.64-1.64,1.64-.59,0-1.1-.31-1.39-.77l.25-.52Z"/>
        <path class="cls-52" d="m94.85,147.01c0,.25.21.46.46.46s.46-.2.46-.46-.21-.46-.46-.46-.46.21-.46.46"/>
        <path class="cls-52" d="m95.09,147.82l-.05.32h-.99s-.21.02-.21.23.21.22.21.22h.93l-.05.31h-1.26s-.09,0-.13.05c-.03.03-.08.13-.08.13l-.7,1.43s-.08.18.12.29c.2.11.33-.1.33-.1l.55-1.13s.04-.07.1-.1c.06-.03.11-.03.11-.03h1.15s.12,0,.22-.1c.1-.09.11-.2.11-.2l.17-1.24s0-.26-.27-.27c-.2-.01-.27.19-.27.19"/>
        <path class="cls-52" d="m101.06,139.3c1.71,0,3.1,1.39,3.1,3.1s-1.39,3.09-3.1,3.09-3.09-1.38-3.09-3.09,1.39-3.1,3.09-3.1"/>
        <path class="cls-54" d="m99.95,143.3c.14.49.6.84,1.13.84.65,0,1.18-.53,1.18-1.18,0-.35-.15-.65-.38-.87l.07-.51c.46.29.76.8.76,1.38,0,.9-.73,1.63-1.63,1.63-.58,0-1.1-.31-1.39-.77l.25-.52Z"/>
        <path class="cls-54" d="m101.05,140.35c0,.25.2.46.46.46s.46-.21.46-.46-.21-.46-.46-.46-.46.21-.46.46"/>
        <path class="cls-54" d="m101.3,141.15l-.05.32h-.99s-.2.02-.2.22.2.22.2.22h.93l-.05.3h-1.25s-.08,0-.13.05c-.03.03-.08.13-.08.13l-.69,1.42s-.08.19.12.29c.2.11.32-.1.32-.1l.55-1.13s.05-.07.1-.1c.06-.03.11-.03.11-.03h1.14s.12,0,.22-.09c.09-.09.11-.2.11-.2l.17-1.24s0-.25-.27-.27c-.2-.01-.27.2-.27.2"/>
        <rect class="cls-57" x="249.25" y="62.88" width="9.46" height="3.11" transform="translate(28.83 198.46) rotate(-45)"/>
        <rect class="cls-54" x="249.01" y="63.97" width="9.84" height="1.03" transform="translate(28.88 198.61) rotate(-45.04)"/>
        <rect class="cls-57" x="256.01" y="50.61" width="20.46" height="3.11" transform="translate(41.09 203.55) rotate(-45)"/>
        <rect class="cls-54" x="257.39" y="55.59" width="9.84" height="1.03" transform="translate(37.26 202.08) rotate(-45.04)"/>
        <rect class="cls-54" x="259.54" y="50.64" width="15.43" height="1.03" transform="translate(42.22 204.13) rotate(-45.04)"/>
        <path class="cls-52" d="m249.44,66.02c1.71,0,3.09,1.39,3.09,3.1s-1.39,3.09-3.09,3.09-3.09-1.39-3.09-3.09,1.38-3.1,3.09-3.1"/>
        <path class="cls-54" d="m248.4,70.02c.14.48.6.84,1.13.84.65,0,1.18-.53,1.18-1.18,0-.34-.15-.65-.38-.87l.07-.51c.46.29.76.8.76,1.38,0,.9-.73,1.63-1.63,1.63-.58,0-1.1-.31-1.39-.77l.25-.52Z"/>
        <path class="cls-54" d="m249.49,67.07c0,.25.2.46.46.46s.46-.21.46-.46-.21-.46-.46-.46-.46.2-.46.46"/>
        <path class="cls-54" d="m249.74,67.88l-.05.32h-.99s-.2.02-.2.22.2.22.2.22h.93l-.05.3h-1.25s-.09,0-.13.05c-.03.03-.08.13-.08.13l-.69,1.42s-.08.19.12.29c.2.11.33-.1.33-.1l.55-1.13s.05-.07.1-.1c.06-.03.11-.03.11-.03h1.15s.12,0,.22-.09c.09-.09.11-.2.11-.2l.17-1.24s0-.25-.27-.27c-.2-.01-.27.2-.27.2"/>
        <rect class="cls-57" x="263.75" y="59.83" width="3.11" height="9.46"/>
        <rect class="cls-57" x="263.75" y="55.45" width="3.11" height="9.46"/>
        <path class="cls-54" d="m265.3,71.72c-1.5,0-2.72-1.22-2.72-2.71s1.22-2.72,2.72-2.72,2.72,1.22,2.72,2.72-1.22,2.71-2.72,2.71"/>
        <path class="cls-57" d="m265.3,72.26c-1.8,0-3.26-1.46-3.26-3.26s1.46-3.26,3.26-3.26,3.26,1.46,3.26,3.26-1.46,3.26-3.26,3.26m-2.17-3.26c0,1.2.97,2.17,2.17,2.17,1.2,0,2.17-.97,2.17-2.17s-.97-2.18-2.17-2.18-2.17.97-2.17,2.18"/>
        <rect class="cls-54" x="264.79" y="59.71" width="1.03" height="9.84"/>
        <rect class="cls-54" x="264.79" y="55.78" width="1.03" height="9.84"/>
        <path class="cls-52" d="m265.24,50.16c1.71,0,3.09,1.39,3.09,3.1s-1.39,3.09-3.09,3.09-3.09-1.39-3.09-3.09,1.38-3.1,3.09-3.1"/>
        <path class="cls-54" d="m264.2,54.16c.14.48.6.84,1.13.84.65,0,1.18-.53,1.18-1.18,0-.34-.15-.65-.38-.87l.07-.51c.46.29.76.8.76,1.38,0,.9-.73,1.63-1.63,1.63-.58,0-1.1-.31-1.39-.77l.25-.52Z"/>
        <path class="cls-54" d="m265.29,51.21c0,.25.2.46.46.46s.46-.21.46-.46-.21-.46-.46-.46-.46.2-.46.46"/>
        <path class="cls-54" d="m265.54,52.02l-.05.32h-.99s-.2.02-.2.22.2.22.2.22h.93l-.05.3h-1.25s-.09,0-.13.05c-.03.03-.08.13-.08.13l-.69,1.42s-.08.19.12.29c.2.11.33-.1.33-.1l.55-1.13s.05-.07.1-.1c.06-.03.11-.03.11-.03h1.15s.12,0,.22-.09c.09-.09.11-.2.11-.2l.17-1.24s0-.25-.27-.27c-.2-.01-.27.2-.27.2"/>
        <path class="cls-52" d="m257.59,57.75c1.83,0,3.3,1.48,3.3,3.31s-1.48,3.3-3.3,3.3-3.31-1.48-3.31-3.3,1.48-3.31,3.31-3.31"/>
        <path class="cls-54" d="m257.59,64.02c-1.64,0-2.96-1.33-2.96-2.97s1.33-2.97,2.96-2.97,2.96,1.33,2.96,2.97-1.33,2.97-2.96,2.97"/>
        <path class="cls-52" d="m256.47,62.01c.16.52.64.9,1.21.9.7,0,1.26-.56,1.26-1.26,0-.36-.16-.69-.41-.93l.07-.55c.49.31.81.85.81,1.47,0,.96-.78,1.74-1.74,1.74-.62,0-1.17-.33-1.48-.82l.27-.56Z"/>
        <path class="cls-52" d="m257.64,58.86c0,.27.22.49.49.49s.49-.22.49-.49-.22-.49-.49-.49-.49.22-.49.49"/>
        <path class="cls-52" d="m257.9,59.72l-.05.35h-1.05s-.22.02-.22.24.22.23.22.23h.99l-.05.33h-1.34s-.09,0-.15.05c-.03.03-.08.14-.08.14l-.74,1.52s-.09.2.13.31c.22.11.35-.1.35-.1l.59-1.2s.05-.08.1-.1c.07-.03.12-.03.12-.03h1.22s.12,0,.23-.1c.1-.1.12-.21.12-.21l.18-1.32s0-.27-.29-.29c-.22-.01-.29.21-.29.21"/>
        <path class="cls-52" d="m274.68,40.54c1.83,0,3.3,1.48,3.3,3.31s-1.48,3.3-3.3,3.3-3.31-1.48-3.31-3.3,1.48-3.31,3.31-3.31"/>
        <path class="cls-54" d="m274.68,46.81c-1.64,0-2.96-1.33-2.96-2.97s1.33-2.97,2.96-2.97,2.96,1.33,2.96,2.97-1.33,2.97-2.96,2.97"/>
        <path class="cls-52" d="m273.56,44.8c.16.52.64.9,1.21.9.7,0,1.26-.56,1.26-1.26,0-.36-.16-.69-.41-.93l.07-.55c.49.31.81.85.81,1.47,0,.96-.78,1.74-1.74,1.74-.62,0-1.17-.33-1.48-.82l.27-.56Z"/>
        <path class="cls-52" d="m274.73,41.65c0,.27.22.49.49.49s.49-.22.49-.49-.22-.49-.49-.49-.49.22-.49.49"/>
        <path class="cls-52" d="m274.99,42.51l-.05.35h-1.05s-.22.02-.22.24.22.23.22.23h.99l-.05.33h-1.34s-.09,0-.15.05c-.03.03-.08.14-.08.14l-.74,1.52s-.09.2.13.31c.22.11.35-.1.35-.1l.59-1.2s.05-.08.1-.1c.07-.03.12-.03.12-.03h1.22s.12,0,.23-.1c.1-.1.12-.21.12-.21l.18-1.32s0-.27-.29-.29c-.22-.01-.29.21-.29.21"/>
        <path class="cls-54" d="m269.85,104.69c0,1.43-1.16,2.59-2.59,2.59s-2.59-1.16-2.59-2.59,1.16-2.59,2.59-2.59,2.59,1.16,2.59,2.59"/>
        <path class="cls-57" d="m270.37,104.69c0,1.71-1.39,3.11-3.11,3.11s-3.11-1.39-3.11-3.11,1.39-3.11,3.11-3.11,3.11,1.39,3.11,3.11m-3.11,2.07c1.14,0,2.07-.93,2.07-2.07s-.93-2.08-2.07-2.08-2.07.93-2.07,2.08.93,2.07,2.07,2.07"/>
        <rect class="cls-57" x="252.66" y="85.56" width="3.11" height="11.6" transform="translate(9.85 206.52) rotate(-45)"/>
        <rect class="cls-57" x="260.92" y="95.05" width="3.11" height="9.46" transform="translate(6.33 214.82) rotate(-45)"/>
        <rect class="cls-54" x="262.71" y="95.61" width="1.03" height="9.84" transform="translate(6.1 215.75) rotate(-45.04)"/>
        <path class="cls-54" d="m253.34,40.7c-1.01,1.01-2.65,1.01-3.66,0-1.01-1.01-1.01-2.66,0-3.67,1.01-1.01,2.66-1.01,3.67,0,1.01,1.01,1.01,2.66,0,3.67"/>
        <path class="cls-57" d="m253.7,41.06c-1.21,1.21-3.18,1.21-4.4,0-1.21-1.22-1.21-3.18,0-4.4s3.18-1.21,4.4,0c1.21,1.21,1.21,3.18,0,4.4m-3.66-.73c.81.81,2.12.81,2.93,0,.81-.81.81-2.12,0-2.93-.81-.81-2.12-.81-2.93,0-.81.81-.81,2.12,0,2.93"/>
        <rect class="cls-57" x="259.88" y="137.36" width="1.28" height="1.32" transform="translate(-21.29 224.64) rotate(-45)"/>
        <rect class="cls-57" x="261.12" y="136.12" width="1.28" height="1.32" transform="translate(-20.05 225.15) rotate(-45)"/>
        <rect class="cls-57" x="262.37" y="134.87" width="1.28" height="1.32" transform="translate(-18.8 225.67) rotate(-45)"/>
        <rect class="cls-57" x="263.66" y="133.58" width="1.28" height="1.32" transform="translate(-17.51 226.2) rotate(-45)"/>
        <rect class="cls-57" x="264.89" y="132.34" width="1.28" height="1.32" transform="translate(-16.27 226.72) rotate(-45)"/>
        <rect class="cls-57" x="266.16" y="131.08" width="1.28" height="1.32" transform="translate(-15.01 227.24) rotate(-45)"/>
        <polygon class="cls-57" points="248.17 152.11 245.97 149.91 256.24 139.64 258.44 141.83 250.77 149.51 248.17 152.11"/>
        <polygon class="cls-54" points="247.95 150.91 247.17 150.13 256.88 140.41 257.66 141.19 249.96 148.9 247.95 150.91"/>
        <path class="cls-52" d="m257.51,137.59c1.71,0,3.1,1.39,3.1,3.1s-1.39,3.09-3.1,3.09-3.09-1.38-3.09-3.09,1.39-3.1,3.09-3.1"/>
        <path class="cls-54" d="m256.46,141.59c.14.49.6.84,1.13.84.65,0,1.18-.53,1.18-1.18,0-.35-.15-.65-.38-.87l.07-.51c.46.29.76.8.76,1.38,0,.9-.73,1.63-1.63,1.63-.59,0-1.1-.31-1.39-.77l.25-.52Z"/>
        <path class="cls-54" d="m257.56,138.64c0,.25.2.46.46.46s.46-.21.46-.46-.21-.46-.46-.46-.46.21-.46.46"/>
        <path class="cls-54" d="m257.8,139.45l-.05.32h-.99s-.21.02-.21.22.21.22.21.22h.93l-.05.31h-1.25s-.09,0-.13.05c-.03.03-.08.13-.08.13l-.7,1.42s-.08.19.12.29c.2.11.33-.1.33-.1l.55-1.13s.05-.07.1-.1c.06-.03.11-.03.11-.03h1.15s.12,0,.22-.09c.09-.09.11-.2.11-.2l.17-1.24s0-.25-.27-.27c-.2-.01-.27.2-.27.2"/>
        <path class="cls-52" d="m245.55,149.43c1.71,0,3.1,1.39,3.1,3.1s-1.39,3.09-3.1,3.09-3.09-1.38-3.09-3.09,1.39-3.1,3.09-3.1"/>
        <path class="cls-54" d="m244.5,153.43c.14.49.6.84,1.13.84.65,0,1.18-.53,1.18-1.18,0-.35-.15-.65-.38-.87l.07-.51c.46.29.76.8.76,1.38,0,.9-.73,1.63-1.63,1.63-.59,0-1.1-.31-1.39-.77l.25-.52Z"/>
        <path class="cls-54" d="m245.6,150.48c0,.25.2.46.46.46s.46-.21.46-.46-.21-.46-.46-.46-.46.21-.46.46"/>
        <path class="cls-54" d="m245.85,151.28l-.05.32h-.99s-.21.02-.21.22.21.22.21.22h.93l-.05.31h-1.25s-.09,0-.13.05c-.03.03-.08.13-.08.13l-.7,1.42s-.08.19.12.29c.2.11.33-.1.33-.1l.55-1.13s.05-.07.1-.1c.06-.03.11-.03.11-.03h1.15s.12,0,.22-.09c.09-.09.11-.2.11-.2l.17-1.24s0-.25-.27-.27c-.2-.01-.27.2-.27.2"/>
        <path class="cls-54" d="m252.05,86.79c0,1.43-1.17,2.59-2.59,2.59s-2.59-1.16-2.59-2.59,1.16-2.59,2.59-2.59,2.59,1.16,2.59,2.59"/>
        <path class="cls-57" d="m252.57,86.79c0,1.72-1.39,3.11-3.11,3.11s-3.11-1.39-3.11-3.11,1.39-3.11,3.11-3.11,3.11,1.39,3.11,3.11m-3.11,2.07c1.14,0,2.07-.93,2.07-2.07s-.93-2.07-2.07-2.07-2.07.93-2.07,2.07.93,2.07,2.07,2.07"/>
        <rect class="cls-54" x="252.97" y="85.73" width="1.03" height="9.84" transform="translate(10.23 205.96) rotate(-45.04)"/>
        <polyline class="cls-54" points="163.27 246.43 162.54 247.15 157.26 241.86 157.98 241.14 163.33 246.48"/>
        <path class="cls-52" d="m257.48,91.76c1.71,0,3.09,1.39,3.09,3.1s-1.39,3.09-3.09,3.09-3.1-1.38-3.1-3.09,1.39-3.1,3.1-3.1"/>
        <path class="cls-54" d="m256.43,95.75c.14.49.6.84,1.13.84.65,0,1.18-.53,1.18-1.18,0-.34-.15-.65-.38-.87l.07-.51c.46.29.76.8.76,1.38,0,.9-.73,1.63-1.63,1.63-.58,0-1.1-.31-1.39-.77l.25-.52Z"/>
        <path class="cls-54" d="m257.52,92.8c0,.25.2.46.46.46s.46-.2.46-.46-.21-.46-.46-.46-.46.21-.46.46"/>
        <path class="cls-54" d="m257.77,93.61l-.05.32h-.99s-.2.02-.2.22.2.22.2.22h.93l-.05.3h-1.25s-.09,0-.13.05c-.03.03-.08.13-.08.13l-.69,1.42s-.08.18.12.29c.2.11.33-.1.33-.1l.55-1.12s.05-.07.1-.1c.06-.03.11-.03.11-.03h1.15s.12,0,.22-.1c.09-.09.11-.19.11-.19l.17-1.24s0-.26-.27-.27c-.2-.01-.27.19-.27.19"/>
      </g>
      <text class="cls-63" transform="translate(7.58 15.8)"><tspan x="0" y="0">Edgware Road </tspan></text>
      <polygon class="cls-59" points="57.4 45.91 55.82 45.21 58.05 45.21 58.05 44.74 55.76 44.74 56.92 44.17 58.05 44.17 58.05 43.72 56.92 43.72 55.5 43.06 54.42 43.06 55.92 43.72 53.62 43.72 53.62 44.17 55.92 44.17 54.72 44.74 53.62 44.74 53.62 45.21 54.8 45.21 56.32 45.91 57.4 45.91"/>
      <text class="cls-63" transform="translate(33.56 45.9)"><tspan x="0" y="0">Paddington</tspan></text>
      <text class="cls-63" transform="translate(7.01 156.15)"><tspan x="0" y="0">Earls</tspan></text>
      <text class="cls-63" transform="translate(6.65 160.2)"><tspan x="0" y="0">Court</tspan></text>
      <text class="cls-64" transform="translate(48.13 235.77)"><tspan x="0" y="0">Battersea</tspan></text>
      <text class="cls-60" transform="translate(75.29 235.72)"><tspan x="0" y="0">Nine</tspan></text>
      <text class="cls-60" transform="translate(75.07 239.65)"><tspan x="0" y="0">Elms</tspan></text>
      <text class="cls-63" transform="translate(81.47 246.59)"><tspan x="0" y="0">Vauxhall</tspan></text>
      <polygon class="cls-59" points="101.01 246.66 99.43 245.95 101.66 245.95 101.66 245.48 99.37 245.48 100.53 244.92 101.66 244.92 101.66 244.46 100.53 244.46 99.11 243.81 98.03 243.81 99.53 244.46 97.23 244.46 97.23 244.92 99.53 244.92 98.33 245.48 97.23 245.48 97.23 245.95 98.41 245.95 99.93 246.66 101.01 246.66"/>
      <text class="cls-63" transform="translate(83.15 202.01)"><tspan x="0" y="0">Pimlico</tspan></text>
      <text class="cls-63" transform="translate(132 237.01)"><tspan x="0" y="0">Kennington</tspan></text>
      <polygon class="cls-59" points="131.53 178.78 129.96 178.08 132.19 178.08 132.19 177.61 129.89 177.61 131.06 177.04 132.19 177.04 132.19 176.59 131.06 176.59 129.63 175.93 128.55 175.93 130.06 176.59 127.75 176.59 127.75 177.04 130.06 177.04 128.85 177.61 127.75 177.61 127.75 178.08 128.94 178.08 130.46 178.78 131.53 178.78"/>
      <text class="cls-63" transform="translate(133.12 178.79)"><tspan x="0" y="0">Waterloo</tspan></text>
      <text class="cls-63" transform="translate(173.8 190.12)"><tspan x="0" y="0">Southwark</tspan></text>
      <text class="cls-63" transform="translate(170.23 198.7)"><tspan x="0" y="0">Lambeth</tspan></text>
      <text class="cls-63" transform="translate(170.23 203.26)"><tspan x="0" y="0">North</tspan></text>
      <text class="cls-63" transform="translate(43.75 156.37)"><tspan x="0" y="0">South</tspan></text>
      <text class="cls-63" transform="translate(38.45 160.42)"><tspan x="0" y="0">Kensington</tspan></text>
      <text class="cls-63" transform="translate(73.58 156.16)"><tspan x="0" y="0">Sloane</tspan></text>
      <text class="cls-63" transform="translate(73.41 160.14)"><tspan x="0" y="0">Square</tspan></text>
      <text class="cls-63" transform="translate(27.2 135.25)"><tspan x="0" y="0">Gloucester</tspan></text>
      <text class="cls-63" transform="translate(33.09 139.24)"><tspan x="0" y="0">Road</tspan></text>
      <text class="cls-63" transform="translate(107.3 143.72)"><tspan x="0" y="0">W</tspan></text>
      <text class="cls-63" transform="translate(111.33 143.72)"><tspan x="0" y="0">estminster</tspan></text>
      <text class="cls-63" transform="translate(107.58 156.04)"><tspan x="0" y="0">St Jamess</tspan></text>
      <text class="cls-63" transform="translate(113.53 160.09)"><tspan x="0" y="0">Park</tspan></text>
      <text class="cls-63" transform="translate(26.86 117.62)"><tspan x="0" y="0">High Street</tspan></text>
      <text class="cls-63" transform="translate(26.86 121.61)"><tspan x="0" y="0">Kensington</tspan></text>
      <text class="cls-63" transform="translate(25.99 94.84)"><tspan x="0" y="0">Notting</tspan></text>
      <text class="cls-63" transform="translate(25.99 98.89)"><tspan x="0" y="0">Hill Gate</tspan></text>
      <text class="cls-63" transform="translate(31.46 108.53)"><tspan x="0" y="0">Queensway</tspan></text>
      <text class="cls-63" transform="translate(61.43 98.56)"><tspan x="0" y="0">Lancaster</tspan></text>
      <text class="cls-63" transform="translate(61.43 102.54)"><tspan x="0" y="0">Gate</tspan></text>
      <text class="cls-63" transform="translate(58.71 112.36)"><tspan x="0" y="0">Hyde Park</tspan></text>
      <text class="cls-63" transform="translate(65.08 116.41)"><tspan x="0" y="0">Corner</tspan></text>
      <text class="cls-63" transform="translate(39.12 128.81)"><tspan x="0" y="0">Knightsbridge</tspan></text>
      <text class="cls-63" transform="translate(26.98 73.98)"><tspan x="0" y="0">Bayswater</tspan></text>
      <text class="cls-63" transform="translate(39.68 83.92)"><tspan x="0" y="0">Marble Arch</tspan></text>
      <text class="cls-63" transform="translate(91.94 66.93)"><tspan x="0" y="0">Bond</tspan></text>
      <text class="cls-63" transform="translate(91.96 70.98)"><tspan x="0" y="0">Street</tspan></text>
      <text class="cls-63" transform="translate(46.04 34.84)"><tspan x="0" y="0">Edgware Road</tspan></text>
      <text class="cls-63" transform="translate(99.66 23.29)"><tspan x="0" y="0">Baker Street</tspan></text>
      <text class="cls-63" transform="translate(46.3 15.27)"><tspan x="0" y="0">Marylebone</tspan></text>
      <polygon class="cls-59" points="44.59 15.26 43.01 14.56 45.25 14.56 45.25 14.09 42.95 14.09 44.12 13.52 45.25 13.52 45.25 13.07 44.12 13.07 42.69 12.41 41.61 12.41 43.12 13.07 40.81 13.07 40.81 13.52 43.12 13.52 41.91 14.09 40.81 14.09 40.81 14.56 42 14.56 43.52 15.26 44.59 15.26"/>
      <text class="cls-63" transform="translate(107.47 48.34)"><tspan x="0" y="0">Regents</tspan></text>
      <text class="cls-63" transform="translate(107.47 52.33)"><tspan x="0" y="0">Park</tspan></text>
      <text class="cls-63" transform="translate(105.01 36.73)"><tspan x="0" y="0">Great Portland</tspan></text>
      <text class="cls-63" transform="translate(113.6 40.56)"><tspan x="0" y="0">Street</tspan></text>
      <text class="cls-63" transform="translate(163.9 43.86)"><tspan x="0" y="0">Warren</tspan></text>
      <text class="cls-63" transform="translate(163.9 48.13)"><tspan x="0" y="0">Street</tspan></text>
      <text class="cls-63" transform="translate(139.26 35.92)"><tspan x="0" y="0">Euston</tspan></text>
      <text class="cls-63" transform="translate(139.52 39.91)"><tspan x="0" y="0">Square</tspan></text>
      <text class="cls-63" transform="translate(149.69 12.19)"><tspan x="0" y="0">Euston</tspan></text>
      <polygon class="cls-59" points="147.75 12.17 146.18 11.47 148.41 11.47 148.41 11 146.11 11 147.28 10.43 148.41 10.43 148.41 9.98 147.28 9.98 145.86 9.32 144.77 9.32 146.28 9.98 143.97 9.98 143.97 10.43 146.28 10.43 145.07 11 143.97 11 143.97 11.47 145.16 11.47 146.68 12.17 147.75 12.17"/>
      <text class="cls-63" transform="translate(103.73 103.34)"><tspan x="0" y="0">Green Park</tspan></text>
      <text class="cls-63" transform="translate(141.46 62.63)"><tspan x="0" y="0">Goodge</tspan></text>
      <text class="cls-63" transform="translate(144.58 66.62)"><tspan x="0" y="0">Street</tspan></text>
      <text class="cls-63" transform="translate(120.62 113.51)"><tspan x="0" y="0">Piccadilly</tspan></text>
      <text class="cls-63" transform="translate(127.04 117.5)"><tspan x="0" y="0">Circus</tspan></text>
      <text class="cls-63" transform="translate(139.82 98.85)"><tspan x="0" y="0">Leicester</tspan></text>
      <text class="cls-63" transform="translate(144.17 102.84)"><tspan x="0" y="0">Square</tspan></text>
      <text class="cls-63" transform="translate(163.24 121.97)"><tspan x="0" y="0">Charing</tspan></text>
      <text class="cls-63" transform="translate(163.24 126.02)"><tspan x="0" y="0">Cross</tspan></text>
      <polygon class="cls-59" points="178.84 126.46 177.26 125.75 179.49 125.75 179.49 125.28 177.2 125.28 178.36 124.72 179.49 124.72 179.49 124.26 178.36 124.26 176.94 123.61 175.86 123.61 177.36 124.26 175.06 124.26 175.06 124.72 177.36 124.72 176.15 125.28 175.06 125.28 175.06 125.75 176.24 125.75 177.77 126.46 178.84 126.46"/>
      <text class="cls-63" transform="translate(163.03 62.93)"><tspan x="0" y="0">Tottenham </tspan></text>
      <text class="cls-63" transform="translate(163.03 66.92)"><tspan x="0" y="0">Court</tspan></text>
      <text class="cls-63" transform="translate(163.03 70.91)"><tspan x="0" y="0">Road</tspan></text>
      <text class="cls-63" transform="translate(199.08 123.39)"><tspan x="0" y="0">Mansion</tspan></text>
      <text class="cls-63" transform="translate(203.12 127.38)"><tspan x="0" y="0">House</tspan></text>
      <text class="cls-63" transform="translate(183.76 156.09)"><tspan x="0" y="0">Temple</tspan></text>
      <text class="cls-63" transform="translate(169.11 144.43)"><tspan x="0" y="0">Embankment</tspan></text>
      <text class="cls-63" transform="translate(188.83 135.94)"><tspan x="0" y="0">Blackfriars</tspan></text>
      <polygon class="cls-59" points="187.3 135.89 185.73 135.18 187.96 135.18 187.96 134.71 185.66 134.71 186.83 134.15 187.96 134.15 187.96 133.7 186.83 133.7 185.41 133.04 184.32 133.04 185.83 133.7 183.52 133.7 183.52 134.15 185.83 134.15 184.62 134.71 183.52 134.71 183.52 135.18 184.71 135.18 186.23 135.89 187.3 135.89"/>
      <text class="cls-63" transform="translate(196.02 233.6)"><tspan x="0" y="0">Elephant &amp; Castle</tspan></text>
      <polygon class="cls-59" points="230.98 233.61 229.4 232.91 231.63 232.91 231.63 232.43 229.34 232.43 230.51 231.87 231.63 231.87 231.63 231.42 230.51 231.42 229.08 230.76 228 230.76 229.5 231.42 227.2 231.42 227.2 231.87 229.5 231.87 228.3 232.43 227.2 232.43 227.2 232.91 228.38 232.91 229.9 233.61 230.98 233.61"/>
      <text class="cls-63" transform="translate(220.87 195.96)"><tspan x="0" y="0">Borough</tspan></text>
      <text class="cls-63" transform="translate(260.36 111.13)"><tspan x="0" y="0">Monument</tspan></text>
      <text class="cls-63" transform="translate(221.92 99.79)"><tspan x="0" y="0">St Pauls</tspan></text>
      <text class="cls-63" transform="translate(215.14 81.49)"><tspan x="0" y="0">City</tspan></text>
      <text class="cls-63" transform="translate(215.14 86.05)"><tspan x="0" y="0">Thameslink</tspan></text>
      <text class="cls-63" transform="translate(218.64 107.67)"><tspan x="0" y="0">Cannon</tspan></text>
      <text class="cls-63" transform="translate(220.21 111.65)"><tspan x="0" y="0">Street</tspan></text>
      <polygon class="cls-59" points="228.16 115.46 226.58 114.76 228.81 114.76 228.81 114.29 226.51 114.29 227.68 113.72 228.81 113.72 228.81 113.27 227.68 113.27 226.26 112.61 225.17 112.61 226.68 113.27 224.38 113.27 224.38 113.72 226.68 113.72 225.47 114.29 224.38 114.29 224.38 114.76 225.56 114.76 227.08 115.46 228.16 115.46"/>
      <text class="cls-63" transform="translate(169.29 86.3)"><tspan x="0" y="0">Holborn</tspan></text>
      <text class="cls-63" transform="translate(185.1 43.79)"><tspan x="0" y="0">Russell</tspan></text>
      <text class="cls-63" transform="translate(185.75 47.92)"><tspan x="0" y="0">Square</tspan></text>
      <text class="cls-63" transform="translate(226.59 27.94)"><tspan x="0" y="0">Angel</tspan></text>
      <text class="cls-63" transform="translate(222.03 41.85)"><tspan x="0" y="0">Farringdon</tspan></text>
      <text class="cls-63" transform="translate(216.59 67.21)"><tspan x="0" y="0">Barbican</tspan></text>
      <polygon class="cls-59" points="244.61 41.87 243.03 41.16 245.27 41.16 245.27 40.69 242.96 40.69 244.14 40.13 245.27 40.13 245.27 39.67 244.14 39.67 242.71 39.01 241.62 39.01 243.13 39.67 240.82 39.67 240.82 40.13 243.13 40.13 241.92 40.69 240.82 40.69 240.82 41.16 242 41.16 243.53 41.87 244.61 41.87"/>
      <text class="cls-63" transform="translate(230.94 75.84)"><tspan x="0" y="0">Moorgate</tspan></text>
      <g>
        <polygon class="cls-59" points="229.22 75.76 227.71 75.08 229.85 75.08 229.85 74.63 227.65 74.63 228.77 74.09 229.85 74.09 229.85 73.66 228.77 73.66 227.41 73.03 226.37 73.03 227.81 73.66 225.6 73.66 225.6 74.09 227.81 74.09 226.66 74.63 225.6 74.63 225.6 75.08 226.74 75.08 228.19 75.76 229.22 75.76"/>
        <polygon class="cls-59" points="296.04 50.05 294.46 49.34 296.69 49.34 296.69 48.87 294.39 48.87 295.56 48.3 296.69 48.3 296.69 47.85 295.56 47.85 294.14 47.19 293.06 47.19 294.56 47.85 292.26 47.85 292.26 48.3 294.56 48.3 293.35 48.87 292.26 48.87 292.26 49.34 293.44 49.34 294.96 50.05 296.04 50.05"/>
      </g>
      <text class="cls-63" transform="translate(279 49.94)"><tspan x="0" y="0">Street</tspan></text>
      <text class="cls-63" transform="translate(286.91 111.19)"><tspan x="0" y="0">Tower</tspan></text>
      <text class="cls-63" transform="translate(292.63 115.24)"><tspan x="0" y="0">Hill</tspan></text>
      <polygon class="cls-59" points="281.25 118.52 280.31 118.1 281.63 118.1 281.63 117.82 280.27 117.82 280.96 117.49 281.63 117.49 281.63 117.21 280.96 117.21 280.12 116.83 279.47 116.83 280.37 117.21 279 117.21 279 117.49 280.37 117.49 279.65 117.82 279 117.82 279 118.1 279.71 118.1 280.61 118.52 281.25 118.52"/>
      <text class="cls-65" transform="translate(282.55 118.56)"><tspan x="0" y="0">Fenchurch St</tspan></text>
      <text class="cls-65" transform="translate(296.14 118.56)"><tspan x="0" y="0"> </tspan></text>
      <text class="cls-63" transform="translate(289.05 84.94)"><tspan x="0" y="0">Aldgate</tspan></text>
      <text class="cls-63" transform="translate(327.72 75.64)"><tspan x="0" y="0">Aldgate</tspan></text>
      <text class="cls-63" transform="translate(331.17 79.63)"><tspan x="0" y="0">East</tspan></text>
      <text class="cls-63" transform="translate(80.7 143.55)"><tspan x="0" y="0">Victoria</tspan></text>
      <g>
        <polygon class="cls-59" points="94.62 139.6 93.04 138.9 95.27 138.9 95.27 138.43 92.98 138.43 94.14 137.86 95.27 137.86 95.27 137.41 94.14 137.41 92.72 136.75 91.64 136.75 93.14 137.41 90.84 137.41 90.84 137.86 93.14 137.86 91.93 138.43 90.84 138.43 90.84 138.9 92.02 138.9 93.54 139.6 94.62 139.6"/>
        <path class="cls-52" d="m82.78,139.17c0,.24.19.44.44.44s.44-.2.44-.44-.2-.44-.44-.44-.44.2-.44.44m.23,0c0-.12.09-.21.21-.21s.21.09.21.21-.1.21-.21.21-.21-.09-.21-.21"/>
        <path class="cls-52" d="m87.08,139.17c0,.24.2.44.44.44s.44-.2.44-.44-.19-.44-.44-.44-.44.2-.44.44m.23,0c0-.12.09-.21.21-.21s.21.09.21.21-.09.21-.21.21-.21-.09-.21-.21"/>
        <path class="cls-52" d="m88.12,139.17c0,.24.19.44.44.44s.43-.2.43-.44-.19-.44-.43-.44-.44.19-.44.44m.23,0c0-.12.09-.21.21-.21s.21.09.21.21-.1.21-.21.21-.21-.09-.21-.21"/>
        <path class="cls-52" d="m81.16,137.5c0,.07.05.12.12.12s.12-.05.12-.12c0-.16.05-.25.08-.3h.31,0c-.24.26-.46.63-.48,1.12-.03.67,0,.97,0,.97h1.38s-.02-.08-.02-.12c0-.3.25-.55.56-.55s.55.25.55.55c0,.04,0,.08-.01.12h3.21s-.01-.08-.01-.12c0-.3.25-.55.55-.55.24,0,.44.15.52.36.08-.21.28-.36.52-.36.3,0,.55.25.55.55,0,.04,0,.08-.01.12h.05s.78-.36.78-.41v-1.65s-.01-.12-.15-.29c-.16-.2-.32-.2-.32-.2h-7.04s-.16.07-.36.22h-.63s-.06.01-.08.03c-.02.02-.18.17-.18.5m6.55-.5h1.5s.15,0,.23.13c.09.12.07.22.07.22v.63h-1.81v-.98Zm-1.93,0h1.69v.98h-1.69v-.98Zm-2.05,0h1.81v.98h-1.81v-.98Zm-1.29,0h1.04v.98h-.51s-.88.38-1.04.4c-.24.03-.45,0-.45,0,0,0,.04-.93.95-1.39"/>
      </g>
      <text class="cls-63" transform="translate(121.17 85.29)"><tspan x="0" y="0">Oxford Circus</tspan></text>
      <text class="cls-63" transform="translate(216.14 7.14)"><tspan x="0" y="0">Kings Cross</tspan></text>
      <text class="cls-63" transform="translate(216.14 11.19)"><tspan x="0" y="0">&amp; St Pancras</tspan></text>
      <text class="cls-63" transform="translate(216.14 15.24)"><tspan x="0" y="0">International</tspan></text>
      <polygon class="cls-59" points="220.41 2.86 218.83 2.15 221.07 2.15 221.07 1.68 218.76 1.68 219.93 1.11 221.07 1.11 221.07 .66 219.93 .66 218.5 0 217.42 0 218.93 .66 216.61 .66 216.61 1.11 218.93 1.11 217.72 1.68 216.61 1.68 216.61 2.15 217.81 2.15 219.33 2.86 220.41 2.86"/>
      <text class="cls-63" transform="translate(175.15 107.1)"><tspan x="0" y="0">Covent</tspan></text>
      <text class="cls-63" transform="translate(175.15 111.08)"><tspan x="0" y="0">Garden</tspan></text>
      <text class="cls-63" transform="translate(185.92 99.59)"><tspan x="0" y="0">Chancery</tspan></text>
      <text class="cls-63" transform="translate(195.15 103.58)"><tspan x="0" y="0">Lane</tspan></text>
      <text class="cls-63" transform="translate(279 45.8)"><tspan x="0" y="0">Liverpool</tspan></text>
      <text class="cls-63" transform="translate(260.31 91.76)"><tspan x="0" y="0">Bank</tspan></text>
      <text class="cls-63" transform="translate(260.03 146.65)"><tspan x="0" y="0">London Bridge </tspan></text>
      <polygon class="cls-59" points="289.93 146.66 288.35 145.95 290.59 145.95 290.59 145.48 288.29 145.48 289.46 144.92 290.59 144.92 290.59 144.46 289.46 144.46 288.03 143.81 286.95 143.81 288.46 144.46 286.15 144.46 286.15 144.92 288.46 144.92 287.25 145.48 286.15 145.48 286.15 145.95 287.34 145.95 288.86 146.66 289.93 146.66"/>
      <text class="cls-63" transform="translate(254.83 31.78)"><tspan x="0" y="0">Old</tspan></text>
      <text class="cls-63" transform="translate(254.83 35.77)"><tspan x="0" y="0">Street</tspan></text>
      <polygon class="cls-59" points="259.13 28.02 257.55 27.32 259.78 27.32 259.78 26.84 257.48 26.84 258.65 26.28 259.78 26.28 259.78 25.83 258.65 25.83 257.23 25.17 256.15 25.17 257.65 25.83 255.35 25.83 255.35 26.28 257.65 26.28 256.45 26.84 255.35 26.84 255.35 27.32 256.53 27.32 258.05 28.02 259.13 28.02"/>
    </g>
    <text class="cls-60" transform="translate(51.94 239.39)"><tspan x="0" y="0">Power</tspan></text>
    <text class="cls-60" transform="translate(51.49 243.06)"><tspan x="0" y="0">Station</tspan></text>
    <line class="cls-68" x1="100.07" y1="28.53" x2="88.97" y2="39.63"/>
  </g>
</svg>